999
dxfrw 0.5.10
0
SECTION
2
HEADER
9
$ACADVER
1
AC1021
9
$HANDSEED
5
20000
9
$DWGCODEPAGE
3
ANSI_1252
9
$INSBASE
10
0
20
0
30
0
9
$EXTMIN
10
-14
20
-30.75
30
0
9
$EXTMAX
10
14
20
39.75
30
0
9
$LIMMIN
10
0
20
0
9
$LIMMAX
10
420
20
297
9
$ORTHOMODE
70
0
9
$LTSCALE
40
1
9
$TEXTSTYLE
7
STANDARD
9
$CLAYER
8
Camera_Engraving
9
$DIMASZ
40
2.5
9
$DIMLFAC
40
1
9
$DIMSCALE
40
1
9
$DIMEXO
40
0.625
9
$DIMEXE
40
1.25
9
$DIMTXT
40
2.5
9
$DIMTSZ
40
0
9
$DIMAUNIT
70
0
9
$DIMADEC
70
2
9
$DIMLUNIT
70
2
9
$DIMSTYLE
2
STANDARD
9
$DIMGAP
40
0.625
9
$DIMTIH
70
0
9
$LUNITS
70
2
9
$LUPREC
70
4
9
$AUNITS
70
0
9
$AUPREC
70
2
9
$SPLINESEGS
70
8
9
$GRIDMODE
70
1
9
$SNAPSTYLE
70
0
9
$GRIDUNIT
10
0
20
0
9
$PINSBASE
10
0
20
0
30
0
9
$PLIMMIN
10
0
20
0
9
$PLIMMAX
10
210
20
297
9
$INSUNITS
70
4
9
$PSVPSCALE
40
1
0
ENDSEC
0
SECTION
2
CLASSES
0
ENDSEC
0
SECTION
2
TABLES
0
TABLE
2
VPORT
5
8
330
0
100
AcDbSymbolTable
70
1
0
VPORT
5
31
330
2
100
AcDbSymbolTableRecord
100
AcDbViewportTableRecord
2
*ACTIVE
70
0
10
0
20
0
11
1
21
1
12
10.835492228
22
8.88601036272
13
0
23
0
14
10
24
10
15
10
25
10
16
0
26
0
36
1
17
0
27
0
37
0
40
17.091968912
41
1.72148541114
42
50
43
0
44
0
50
0
51
0
71
0
72
100
73
1
74
3
75
0
76
1
77
0
78
0
281
0
65
1
110
0
120
0
130
0
111
1
121
0
131
0
112
0
122
1
132
0
79
0
146
0
348
10020
60
7
61
5
292
1
282
1
141
0
142
0
63
250
421
3358443
0
ENDTAB
0
TABLE
2
LTYPE
5
5
330
0
100
AcDbSymbolTable
70
4
0
LTYPE
5
14
330
5
100
AcDbSymbolTableRecord
100
AcDbLinetypeTableRecord
2
ByBlock
70
0
3

72
65
73
0
40
0
0
LTYPE
5
15
330
5
100
AcDbSymbolTableRecord
100
AcDbLinetypeTableRecord
2
ByLayer
70
0
3

72
65
73
0
40
0
0
LTYPE
5
16
330
5
100
AcDbSymbolTableRecord
100
AcDbLinetypeTableRecord
2
Continuous
70
0
3
Solid line
72
65
73
0
40
0
0
LTYPE
5
32
330
5
100
AcDbSymbolTableRecord
100
AcDbLinetypeTableRecord
2
DOT
70
0
3
Dot . . . . . . . . . . . . . . . . . . . . . .
72
65
73
2
40
6.35
49
0
74
0
49
-6.35
74
0
0
LTYPE
5
33
330
5
100
AcDbSymbolTableRecord
100
AcDbLinetypeTableRecord
2
DOT2
70
0
3
Dot (.5x) .....................................
72
65
73
2
40
3.175
49
0
74
0
49
-3.175
74
0
0
LTYPE
5
34
330
5
100
AcDbSymbolTableRecord
100
AcDbLinetypeTableRecord
2
DOTX2
70
0
3
Dot (2x) .  .  .  .  .  .  .  .  .  .  .  .  .
72
65
73
2
40
12.7
49
0
74
0
49
-12.7
74
0
0
LTYPE
5
35
330
5
100
AcDbSymbolTableRecord
100
AcDbLinetypeTableRecord
2
DASHED
70
0
3
Dot . . . . . . . . . . . . . . . . . . . . . .
72
65
73
2
40
19.05
49
12.7
74
0
49
-6.35
74
0
0
LTYPE
5
36
330
5
100
AcDbSymbolTableRecord
100
AcDbLinetypeTableRecord
2
DASHED2
70
0
3
Dashed (.5x) _ _ _ _ _ _ _ _ _ _ _ _ _ _ _ _ _
72
65
73
2
40
9.525
49
6.35
74
0
49
-3.175
74
0
0
LTYPE
5
37
330
5
100
AcDbSymbolTableRecord
100
AcDbLinetypeTableRecord
2
DASHEDX2
70
0
3
Dashed (2x) ____  ____  ____  ____  ____  ___
72
65
73
2
40
38.1
49
25.4
74
0
49
-12.7
74
0
0
LTYPE
5
38
330
5
100
AcDbSymbolTableRecord
100
AcDbLinetypeTableRecord
2
DASHDOT
70
0
3
Dash dot __ . __ . __ . __ . __ . __ . __ . __
72
65
73
4
40
25.4
49
12.7
74
0
49
-6.35
74
0
49
0
74
0
49
-6.35
74
0
0
LTYPE
5
39
330
5
100
AcDbSymbolTableRecord
100
AcDbLinetypeTableRecord
2
DASHDOT2
70
0
3
Dash dot (.5x) _._._._._._._._._._._._._._._.
72
65
73
4
40
12.7
49
6.35
74
0
49
-3.175
74
0
49
0
74
0
49
-3.175
74
0
0
LTYPE
5
3A
330
5
100
AcDbSymbolTableRecord
100
AcDbLinetypeTableRecord
2
DASHDOTX2
70
0
3
Dash dot (2x) ____  .  ____  .  ____  .  ___
72
65
73
4
40
50.8
49
25.4
74
0
49
-12.7
74
0
49
0
74
0
49
-12.7
74
0
0
LTYPE
5
3B
330
5
100
AcDbSymbolTableRecord
100
AcDbLinetypeTableRecord
2
DIVIDE
70
0
3
Divide ____ . . ____ . . ____ . . ____ . . ____
72
65
73
6
40
31.75
49
12.7
74
0
49
-6.35
74
0
49
0
74
0
49
-6.35
74
0
49
0
74
0
49
-6.35
74
0
0
LTYPE
5
3C
330
5
100
AcDbSymbolTableRecord
100
AcDbLinetypeTableRecord
2
DIVIDE2
70
0
3
Divide (.5x) __..__..__..__..__..__..__..__.._
72
65
73
6
40
15.875
49
6.35
74
0
49
-3.175
74
0
49
0
74
0
49
-3.175
74
0
49
0
74
0
49
-3.175
74
0
0
LTYPE
5
3D
330
5
100
AcDbSymbolTableRecord
100
AcDbLinetypeTableRecord
2
DIVIDEX2
70
0
3
Divide (2x) ________  .  .  ________  .  .  _
72
65
73
6
40
63.5
49
25.4
74
0
49
-12.7
74
0
49
0
74
0
49
-12.7
74
0
49
0
74
0
49
-12.7
74
0
0
LTYPE
5
3E
330
5
100
AcDbSymbolTableRecord
100
AcDbLinetypeTableRecord
2
BORDER
70
0
3
Border __ __ . __ __ . __ __ . __ __ . __ __ .
72
65
73
6
40
44.45
49
12.7
74
0
49
-6.35
74
0
49
12.7
74
0
49
-6.35
74
0
49
0
74
0
49
-6.35
74
0
0
LTYPE
5
3F
330
5
100
AcDbSymbolTableRecord
100
AcDbLinetypeTableRecord
2
BORDER2
70
0
3
Border (.5x) __.__.__.__.__.__.__.__.__.__.__.
72
65
73
6
40
22.225
49
6.35
74
0
49
-3.175
74
0
49
6.35
74
0
49
-3.175
74
0
49
0
74
0
49
-3.175
74
0
0
LTYPE
5
40
330
5
100
AcDbSymbolTableRecord
100
AcDbLinetypeTableRecord
2
BORDERX2
70
0
3
Border (2x) ____  ____  .  ____  ____  .  ___
72
65
73
6
40
88.9
49
25.4
74
0
49
-12.7
74
0
49
25.4
74
0
49
-12.7
74
0
49
0
74
0
49
-12.7
74
0
0
LTYPE
5
41
330
5
100
AcDbSymbolTableRecord
100
AcDbLinetypeTableRecord
2
CENTER
70
0
3
Center ____ _ ____ _ ____ _ ____ _ ____ _ ____
72
65
73
4
40
50.8
49
31.75
74
0
49
-6.35
74
0
49
6.35
74
0
49
-6.35
74
0
0
LTYPE
5
42
330
5
100
AcDbSymbolTableRecord
100
AcDbLinetypeTableRecord
2
CENTER2
70
0
3
Center (.5x) ___ _ ___ _ ___ _ ___ _ ___ _ ___
72
65
73
4
40
28.575
49
19.05
74
0
49
-3.175
74
0
49
3.175
74
0
49
-3.175
74
0
0
LTYPE
5
43
330
5
100
AcDbSymbolTableRecord
100
AcDbLinetypeTableRecord
2
CENTERX2
70
0
3
Center (2x) ________  __  ________  __  _____
72
65
73
4
40
101.6
49
63.5
74
0
49
-12.7
74
0
49
12.7
74
0
49
-12.7
74
0
0
ENDTAB
0
TABLE
2
LAYER
5
2
330
0
100
AcDbSymbolTable
70
1
0
LAYER
5
10
330
2
100
AcDbSymbolTableRecord
100
AcDbLayerTableRecord
2
0
70
0
62
7
6
CONTINUOUS
370
0
390
F
0
LAYER
5
44
330
2
100
AcDbSymbolTableRecord
100
AcDbLayerTableRecord
2
Camera_Board
70
0
62
2
6
CONTINUOUS
370
0
390
F
0
LAYER
5
45
330
2
100
AcDbSymbolTableRecord
100
AcDbLayerTableRecord
2
Camera_VibrationMotor
70
0
62
5
6
CONTINUOUS
370
0
390
F
0
LAYER
5
46
330
2
100
AcDbSymbolTableRecord
100
AcDbLayerTableRecord
2
Camera_Lens
70
0
62
3
6
CONTINUOUS
370
0
390
F
0
LAYER
5
47
330
2
100
AcDbSymbolTableRecord
100
AcDbLayerTableRecord
2
Camera_Buttons
70
0
62
1
6
CONTINUOUS
370
0
390
F
0
LAYER
5
48
330
2
100
AcDbSymbolTableRecord
100
AcDbLayerTableRecord
2
Camera_MountingHoles
70
0
62
1
6
CONTINUOUS
370
0
390
F
0
LAYER
5
49
330
2
100
AcDbSymbolTableRecord
100
AcDbLayerTableRecord
2
Camera_Engraving
70
0
62
7
6
CONTINUOUS
370
0
390
F
0
ENDTAB
0
TABLE
2
STYLE
5
3
330
0
100
AcDbSymbolTable
70
3
0
STYLE
5
4A
330
2
100
AcDbSymbolTableRecord
100
AcDbTextStyleTableRecord
2
Standard
70
0
40
0
41
1
50
0
71
0
42
1
3
txt
4

0
ENDTAB
0
TABLE
2
VIEW
5
6
330
0
100
AcDbSymbolTable
70
0
0
ENDTAB
0
TABLE
2
UCS
5
7
330
0
100
AcDbSymbolTable
70
0
0
ENDTAB
0
TABLE
2
APPID
5
9
330
0
100
AcDbSymbolTable
70
1
0
APPID
5
12
330
9
100
AcDbSymbolTableRecord
100
AcDbRegAppTableRecord
2
ACAD
70
0
0
ENDTAB
0
TABLE
2
DIMSTYLE
5
A
330
0
100
AcDbSymbolTable
70
1
100
AcDbDimStyleTable
71
1
0
DIMSTYLE
105
4B
330
A
100
AcDbSymbolTableRecord
100
AcDbDimStyleTableRecord
2
Standard
70
0
40
1
41
2.5
42
0.625
43
0.38
44
1.25
45
0
46
0
47
0
48
0
140
2.5
141
0.09
142
0
143
25.4
144
1
145
0
146
1
147
0.625
148
0
71
0
72
0
73
0
74
1
75
0
76
0
77
0
78
0
79
0
170
0
171
2
172
0
173
0
174
0
175
0
176
0
177
0
178
0
179
0
271
4
272
4
273
2
274
2
275
0
276
0
277
2
278
46
279
0
280
0
281
0
282
0
283
1
284
0
285
0
286
0
288
0
289
3
340
Standard
341

371
-2
372
-2
0
ENDTAB
0
TABLE
2
BLOCK_RECORD
5
1
330
0
100
AcDbSymbolTable
70
2
0
BLOCK_RECORD
5
1F
330
1
100
AcDbSymbolTableRecord
100
AcDbBlockTableRecord
2
*Model_Space
70
0
280
1
281
0
0
BLOCK_RECORD
5
1E
330
1
100
AcDbSymbolTableRecord
100
AcDbBlockTableRecord
2
*Paper_Space
70
0
280
1
281
0
0
ENDTAB
0
ENDSEC
0
SECTION
2
BLOCKS
0
BLOCK
5
20
330
1F
100
AcDbEntity
8
0
100
AcDbBlockBegin
2
*Model_Space
70
0
10
0
20
0
30
0
3
*Model_Space
1

0
ENDBLK
5
21
330
1F
100
AcDbEntity
8
0
100
AcDbBlockEnd
0
BLOCK
5
1C
330
1B
100
AcDbEntity
8
0
100
AcDbBlockBegin
2
*Paper_Space
70
0
10
0
20
0
30
0
3
*Paper_Space
1

0
ENDBLK
5
1D
330
1F
100
AcDbEntity
8
0
100
AcDbBlockEnd
0
ENDSEC
0
SECTION
2
ENTITIES
0
LINE
5
4C
100
AcDbEntity
8
Camera_Board
6
ByLayer
62
256
370
-1
100
AcDbLine
10
-14
20
-30.75
11
-14
21
30.75
0
LINE
5
4D
100
AcDbEntity
8
Camera_Board
6
ByLayer
62
256
370
-1
100
AcDbLine
10
14
20
-30.75
11
14
21
30.75
0
LINE
5
4E
100
AcDbEntity
8
Camera_Board
6
ByLayer
62
256
370
-1
100
AcDbLine
10
-14
20
30.75
11
14
21
30.75
0
LINE
5
4F
100
AcDbEntity
8
Camera_Board
6
ByLayer
62
256
370
-1
100
AcDbLine
10
14
20
-30.75
11
-14
21
-30.75
0
LINE
5
50
100
AcDbEntity
8
Camera_VibrationMotor
6
ByLayer
62
256
370
-1
100
AcDbLine
10
14
20
30.75
11
14
21
35.75
0
LINE
5
51
100
AcDbEntity
8
Camera_VibrationMotor
6
ByLayer
62
256
370
-1
100
AcDbLine
10
14
20
35.75
11
7
21
35.75
0
LINE
5
52
100
AcDbEntity
8
Camera_VibrationMotor
6
ByLayer
62
256
370
-1
100
AcDbLine
10
7
20
35.75
11
7
21
30.75
0
LINE
5
53
100
AcDbEntity
8
Camera_Lens
6
ByLayer
62
256
370
-1
100
AcDbLine
10
-5.5
20
39.75
11
5.5
21
39.75
0
LINE
5
54
100
AcDbEntity
8
Camera_Lens
6
ByLayer
62
256
370
-1
100
AcDbLine
10
5.5
20
39.75
11
5.5
21
30.75
0
LINE
5
55
100
AcDbEntity
8
Camera_Lens
6
ByLayer
62
256
370
-1
100
AcDbLine
10
-5.5
20
39.75
11
-5.5
21
30.75
0
CIRCLE
5
56
100
AcDbEntity
8
Camera_Buttons
6
ByLayer
62
256
370
-1
100
AcDbCircle
10
1.31711428972e-15
20
23.25
40
2.2
0
CIRCLE
5
57
100
AcDbEntity
8
Camera_Buttons
6
ByLayer
62
256
370
-1
100
AcDbCircle
10
6.1294238021e-16
20
11.75
40
2.2
0
CIRCLE
5
58
100
AcDbEntity
8
Camera_Buttons
6
ByLayer
62
256
370
-1
100
AcDbCircle
10
-6.06133593208e-17
20
0.75
40
2.2
0
POINT
5
59
100
AcDbEntity
8
Camera_MountingHoles
6
ByLayer
62
256
370
-1
100
AcDbPoint
10
-14
20
30.75
0
CIRCLE
5
5A
100
AcDbEntity
8
Camera_MountingHoles
6
ByLayer
62
256
370
-1
100
AcDbCircle
10
-11.5
20
28.25
40
1.5
0
CIRCLE
5
5B
100
AcDbEntity
8
Camera_MountingHoles
6
ByLayer
62
256
370
-1
100
AcDbCircle
10
-11.5
20
-20.75
40
1.5
0
CIRCLE
5
5C
100
AcDbEntity
8
Camera_MountingHoles
6
ByLayer
62
256
370
-1
100
AcDbCircle
10
11.5
20
-24.25
40
1.5
0
LINE
5
5D
100
AcDbEntity
8
Camera_Engraving
6
CONTINUOUS
62
7
370
0
100
AcDbLine
10
-9.72222222222
20
5.69444444444
11
-9.72222222222
21
5.41666666667
0
ARC
5
5E
100
AcDbEntity
8
Camera_Engraving
6
CONTINUOUS
62
7
370
0
100
AcDbCircle
10
-9.94444444444
20
5.69444444444
40
0.222222222222
100
AcDbArc
50
360
51
180
0
LINE
5
5F
100
AcDbEntity
8
Camera_Engraving
6
CONTINUOUS
62
7
370
0
100
AcDbLine
10
-10.1666666667
20
5.69444444444
11
-10.1666666667
21
5.41666666667
0
LINE
5
60
100
AcDbEntity
8
Camera_Engraving
6
CONTINUOUS
62
7
370
0
100
AcDbLine
10
-10.1666666667
20
5.41666666667
11
-9.16666666667
21
5.41666666667
0
LINE
5
61
100
AcDbEntity
8
Camera_Engraving
6
CONTINUOUS
62
7
370
0
100
AcDbLine
10
-9.16666666667
20
5.41666666667
11
-9.16666666667
21
5.69444444444
0
ARC
5
62
100
AcDbEntity
8
Camera_Engraving
6
CONTINUOUS
62
7
370
0
100
AcDbCircle
10
-9.44444444444
20
5.69444444444
40
0.277777777778
100
AcDbArc
50
360
51
180
0
LINE
5
63
100
AcDbEntity
8
Camera_Engraving
6
CONTINUOUS
62
7
370
0
100
AcDbLine
10
-10.1666666667
20
6.30555555556
11
-9.16666666667
21
6.30555555556
0
LINE
5
64
100
AcDbEntity
8
Camera_Engraving
6
CONTINUOUS
62
7
370
0
100
AcDbLine
10
-9.16666666667
20
6.30555555556
11
-9.16666666667
21
6.75
0
LINE
5
65
100
AcDbEntity
8
Camera_Engraving
6
CONTINUOUS
62
7
370
0
100
AcDbLine
10
-10.1666666667
20
7.08333333333
11
-9.44444444444
21
7.08333333333
0
ARC
5
66
100
AcDbEntity
8
Camera_Engraving
6
CONTINUOUS
62
7
370
0
100
AcDbCircle
10
-9.44444444444
20
7.36111111111
40
0.277777777778
100
AcDbArc
50
270
51
90
0
LINE
5
67
100
AcDbEntity
8
Camera_Engraving
6
CONTINUOUS
62
7
370
0
100
AcDbLine
10
-9.44444444444
20
7.63888888889
11
-10.1666666667
21
7.63888888889
0
LINE
5
68
100
AcDbEntity
8
Camera_Engraving
6
CONTINUOUS
62
7
370
0
100
AcDbLine
10
-9.16666666667
20
8.41666666667
11
-9.16666666667
21
7.97222222222
0
LINE
5
69
100
AcDbEntity
8
Camera_Engraving
6
CONTINUOUS
62
7
370
0
100
AcDbLine
10
-9.16666666667
20
7.97222222222
11
-10.1666666667
21
7.97222222222
0
LINE
5
6A
100
AcDbEntity
8
Camera_Engraving
6
CONTINUOUS
62
7
370
0
100
AcDbLine
10
-10.1666666667
20
7.97222222222
11
-10.1666666667
21
8.41666666667
0
LINE
5
6B
100
AcDbEntity
8
Camera_Engraving
6
CONTINUOUS
62
7
370
0
100
AcDbLine
10
-9.72222222222
20
7.97222222222
11
-9.72222222222
21
8.30555555556
0
LINE
5
6C
100
AcDbEntity
8
Camera_Engraving
6
CONTINUOUS
62
7
370
0
100
AcDbLine
10
-9.16666666667
20
9.5
11
-9.16666666667
21
9.94444444444
0
LINE
5
6D
100
AcDbEntity
8
Camera_Engraving
6
CONTINUOUS
62
7
370
0
100
AcDbLine
10
-9.5
20
9.5
11
-9.5
21
9.94444444444
0
LINE
5
6E
100
AcDbEntity
8
Camera_Engraving
6
CONTINUOUS
62
7
370
0
100
AcDbLine
10
-10.1666666667
20
11.0277777778
11
-9.16666666667
21
11.3611111111
0
LINE
5
6F
100
AcDbEntity
8
Camera_Engraving
6
CONTINUOUS
62
7
370
0
100
AcDbLine
10
-9.16666666667
20
11.3611111111
11
-10.1666666667
21
11.6944444444
0
LINE
5
70
100
AcDbEntity
8
Camera_Engraving
6
CONTINUOUS
62
7
370
0
100
AcDbLine
10
-9.16666666667
20
12.0277777778
11
-10.1666666667
21
12.0277777778
0
LINE
5
71
100
AcDbEntity
8
Camera_Engraving
6
CONTINUOUS
62
7
370
0
100
AcDbLine
10
-9.16666666667
20
12.3611111111
11
-9.16666666667
21
12.6944444444
0
ARC
5
72
100
AcDbEntity
8
Camera_Engraving
6
CONTINUOUS
62
7
370
0
100
AcDbCircle
10
-9.38888872287
20
12.6944446105
40
0.222222056206
100
AcDbArc
50
359.999957196
51
90.0000428043
0
LINE
5
73
100
AcDbEntity
8
Camera_Engraving
6
CONTINUOUS
62
7
370
0
100
AcDbLine
10
-9.38888888889
20
12.9166666667
11
-9.94444444444
21
12.9166666667
0
ARC
5
74
100
AcDbEntity
8
Camera_Engraving
6
CONTINUOUS
62
7
370
0
100
AcDbCircle
10
-9.94444461046
20
12.6944446105
40
0.222222056206
100
AcDbArc
50
89.9999571957
51
180.000042804
0
LINE
5
75
100
AcDbEntity
8
Camera_Engraving
6
CONTINUOUS
62
7
370
0
100
AcDbLine
10
-10.1666666667
20
12.6944444444
11
-10.1666666667
21
12.3611111111
0
LINE
5
76
100
AcDbEntity
8
Camera_Engraving
6
CONTINUOUS
62
7
370
0
100
AcDbLine
10
-10.1666666667
20
12.3611111111
11
-9.16666666667
21
12.3611111111
0
LINE
5
77
100
AcDbEntity
8
Camera_Engraving
6
CONTINUOUS
62
7
370
0
100
AcDbLine
10
-9.16666666667
20
13.6944444444
11
-9.16666666667
21
13.25
0
LINE
5
78
100
AcDbEntity
8
Camera_Engraving
6
CONTINUOUS
62
7
370
0
100
AcDbLine
10
-9.16666666667
20
13.25
11
-10.1666666667
21
13.25
0
LINE
5
79
100
AcDbEntity
8
Camera_Engraving
6
CONTINUOUS
62
7
370
0
100
AcDbLine
10
-10.1666666667
20
13.25
11
-10.1666666667
21
13.6944444444
0
LINE
5
7A
100
AcDbEntity
8
Camera_Engraving
6
CONTINUOUS
62
7
370
0
100
AcDbLine
10
-9.72222222222
20
13.25
11
-9.72222222222
21
13.5833333333
0
ARC
5
7B
100
AcDbEntity
8
Camera_Engraving
6
CONTINUOUS
62
7
370
0
100
AcDbCircle
10
-9.44444444444
20
14.3055555556
40
0.277777777778
100
AcDbArc
50
270
51
90
0
LINE
5
7C
100
AcDbEntity
8
Camera_Engraving
6
CONTINUOUS
62
7
370
0
100
AcDbLine
10
-9.44444444444
20
14.0277777778
11
-9.88888888889
21
14.0277777778
0
ARC
5
7D
100
AcDbEntity
8
Camera_Engraving
6
CONTINUOUS
62
7
370
0
100
AcDbCircle
10
-9.88888888889
20
14.3055555556
40
0.277777777778
100
AcDbArc
50
90
51
270
0
LINE
5
7E
100
AcDbEntity
8
Camera_Engraving
6
CONTINUOUS
62
7
370
0
100
AcDbLine
10
-9.88888888889
20
14.5833333333
11
-9.44444444444
21
14.5833333333
0
LINE
5
7F
100
AcDbEntity
8
Camera_Engraving
6
CONTINUOUS
62
7
370
0
100
AcDbLine
10
-7.5
20
5.52777777778
11
-8.5
21
5.52777777778
0
LINE
5
80
100
AcDbEntity
8
Camera_Engraving
6
CONTINUOUS
62
7
370
0
100
AcDbLine
10
-8.5
20
5.52777777778
11
-8.5
21
5.80555555556
0
ARC
5
81
100
AcDbEntity
8
Camera_Engraving
6
CONTINUOUS
62
7
370
0
100
AcDbCircle
10
-8.22222222222
20
5.80555555556
40
0.277777777778
100
AcDbArc
50
360
51
180
0
LINE
5
82
100
AcDbEntity
8
Camera_Engraving
6
CONTINUOUS
62
7
370
0
100
AcDbLine
10
-7.94444444444
20
5.80555555556
11
-7.94444444444
21
5.52777777778
0
LINE
5
83
100
AcDbEntity
8
Camera_Engraving
6
CONTINUOUS
62
7
370
0
100
AcDbLine
10
-7.5
20
6.08333333333
11
-7.94958444444
21
5.85874555556
0
LINE
5
84
100
AcDbEntity
8
Camera_Engraving
6
CONTINUOUS
62
7
370
0
100
AcDbLine
10
-7.5
20
6.86111111111
11
-7.5
21
6.41666666667
0
LINE
5
85
100
AcDbEntity
8
Camera_Engraving
6
CONTINUOUS
62
7
370
0
100
AcDbLine
10
-7.5
20
6.41666666667
11
-8.5
21
6.41666666667
0
LINE
5
86
100
AcDbEntity
8
Camera_Engraving
6
CONTINUOUS
62
7
370
0
100
AcDbLine
10
-8.5
20
6.41666666667
11
-8.5
21
6.86111111111
0
LINE
5
87
100
AcDbEntity
8
Camera_Engraving
6
CONTINUOUS
62
7
370
0
100
AcDbLine
10
-8.05555555556
20
6.41666666667
11
-8.05555555556
21
6.75
0
LINE
5
88
100
AcDbEntity
8
Camera_Engraving
6
CONTINUOUS
62
7
370
0
100
AcDbLine
10
-7.5
20
7.19444444444
11
-7.5
21
7.52777777778
0
ARC
5
89
100
AcDbEntity
8
Camera_Engraving
6
CONTINUOUS
62
7
370
0
100
AcDbCircle
10
-7.72222205621
20
7.52777794379
40
0.222222056206
100
AcDbArc
50
359.999957196
51
90.0000428043
0
LINE
5
8A
100
AcDbEntity
8
Camera_Engraving
6
CONTINUOUS
62
7
370
0
100
AcDbLine
10
-7.72222222222
20
7.75
11
-8.27777777778
21
7.75
0
ARC
5
8B
100
AcDbEntity
8
Camera_Engraving
6
CONTINUOUS
62
7
370
0
100
AcDbCircle
10
-8.27777794379
20
7.52777794379
40
0.222222056206
100
AcDbArc
50
89.9999571957
51
180.000042804
0
LINE
5
8C
100
AcDbEntity
8
Camera_Engraving
6
CONTINUOUS
62
7
370
0
100
AcDbLine
10
-8.5
20
7.52777777778
11
-8.5
21
7.19444444444
0
LINE
5
8D
100
AcDbEntity
8
Camera_Engraving
6
CONTINUOUS
62
7
370
0
100
AcDbLine
10
-8.5
20
7.19444444444
11
-7.5
21
7.19444444444
0
LINE
5
8E
100
AcDbEntity
8
Camera_Engraving
6
CONTINUOUS
62
7
370
0
100
AcDbLine
10
-7.5
20
8.83333333333
11
-7.5
21
9.27777777778
0
LINE
5
8F
100
AcDbEntity
8
Camera_Engraving
6
CONTINUOUS
62
7
370
0
100
AcDbLine
10
-7.83333333333
20
8.83333333333
11
-7.83333333333
21
9.27777777778
0
LINE
5
90
100
AcDbEntity
8
Camera_Engraving
6
CONTINUOUS
62
7
370
0
100
AcDbLine
10
-7.5
20
10.3611111111
11
-8.5
21
10.3611111111
0
LINE
5
91
100
AcDbEntity
8
Camera_Engraving
6
CONTINUOUS
62
7
370
0
100
AcDbLine
10
-8.5
20
10.3611111111
11
-8.5
21
10.6388888889
0
ARC
5
92
100
AcDbEntity
8
Camera_Engraving
6
CONTINUOUS
62
7
370
0
100
AcDbCircle
10
-8.22222222222
20
10.6388888889
40
0.277777777778
100
AcDbArc
50
360
51
180
0
LINE
5
93
100
AcDbEntity
8
Camera_Engraving
6
CONTINUOUS
62
7
370
0
100
AcDbLine
10
-7.94444444444
20
10.6388888889
11
-7.94444444444
21
10.3611111111
0
LINE
5
94
100
AcDbEntity
8
Camera_Engraving
6
CONTINUOUS
62
7
370
0
100
AcDbLine
10
-7.5
20
11.25
11
-8.5
21
11.25
0
LINE
5
95
100
AcDbEntity
8
Camera_Engraving
6
CONTINUOUS
62
7
370
0
100
AcDbLine
10
-7.5
20
11.8055555556
11
-8.5
21
11.8055555556
0
LINE
5
96
100
AcDbEntity
8
Camera_Engraving
6
CONTINUOUS
62
7
370
0
100
AcDbLine
10
-8.05555555556
20
11.25
11
-8.05555555556
21
11.8055555556
0
ARC
5
97
100
AcDbEntity
8
Camera_Engraving
6
CONTINUOUS
62
7
370
0
100
AcDbCircle
10
-7.77777777778
20
12.4166666667
40
0.277777777778
100
AcDbArc
50
270
51
90
0
LINE
5
98
100
AcDbEntity
8
Camera_Engraving
6
CONTINUOUS
62
7
370
0
100
AcDbLine
10
-7.77777777778
20
12.1388888889
11
-8.22222222222
21
12.1388888889
0
ARC
5
99
100
AcDbEntity
8
Camera_Engraving
6
CONTINUOUS
62
7
370
0
100
AcDbCircle
10
-8.22222222222
20
12.4166666667
40
0.277777777778
100
AcDbArc
50
90
51
270
0
LINE
5
9A
100
AcDbEntity
8
Camera_Engraving
6
CONTINUOUS
62
7
370
0
100
AcDbLine
10
-8.22222222222
20
12.6944444444
11
-7.77777777778
21
12.6944444444
0
LINE
5
9B
100
AcDbEntity
8
Camera_Engraving
6
CONTINUOUS
62
7
370
0
100
AcDbLine
10
-8.5
20
13.0277777778
11
-8.5
21
13.5833333333
0
LINE
5
9C
100
AcDbEntity
8
Camera_Engraving
6
CONTINUOUS
62
7
370
0
100
AcDbLine
10
-8.5
20
13.3055555556
11
-7.5
21
13.3055555556
0
ARC
5
9D
100
AcDbEntity
8
Camera_Engraving
6
CONTINUOUS
62
7
370
0
100
AcDbCircle
10
-7.77777777778
20
14.1944444444
40
0.277777777778
100
AcDbArc
50
270
51
90
0
LINE
5
9E
100
AcDbEntity
8
Camera_Engraving
6
CONTINUOUS
62
7
370
0
100
AcDbLine
10
-7.77777777778
20
13.9166666667
11
-8.22222222222
21
13.9166666667
0
ARC
5
9F
100
AcDbEntity
8
Camera_Engraving
6
CONTINUOUS
62
7
370
0
100
AcDbCircle
10
-8.22222222222
20
14.1944444444
40
0.277777777778
100
AcDbArc
50
90
51
270
0
LINE
5
A0
100
AcDbEntity
8
Camera_Engraving
6
CONTINUOUS
62
7
370
0
100
AcDbLine
10
-8.22222222222
20
14.4722222222
11
-7.77777777778
21
14.4722222222
0
ARC
5
A1
100
AcDbEntity
8
Camera_Engraving
6
CONTINUOUS
62
7
370
0
100
AcDbCircle
10
-6.11111111111
20
1.31944444444
40
0.277777777778
100
AcDbArc
50
270
51
90
0
LINE
5
A2
100
AcDbEntity
8
Camera_Engraving
6
CONTINUOUS
62
7
370
0
100
AcDbLine
10
-6.11111111111
20
1.04166666667
11
-6.55555555556
21
1.04166666667
0
ARC
5
A3
100
AcDbEntity
8
Camera_Engraving
6
CONTINUOUS
62
7
370
0
100
AcDbCircle
10
-6.55555555556
20
1.31944444444
40
0.277777777778
100
AcDbArc
50
90
51
270
0
LINE
5
A4
100
AcDbEntity
8
Camera_Engraving
6
CONTINUOUS
62
7
370
0
100
AcDbLine
10
-6.55555555556
20
1.59722222222
11
-6.11111111111
21
1.59722222222
0
LINE
5
A5
100
AcDbEntity
8
Camera_Engraving
6
CONTINUOUS
62
7
370
0
100
AcDbLine
10
-5.83333333333
20
1.93055555556
11
-6.83333333333
21
1.93055555556
0
LINE
5
A6
100
AcDbEntity
8
Camera_Engraving
6
CONTINUOUS
62
7
370
0
100
AcDbLine
10
-6.83333333333
20
1.93055555556
11
-6.83333333333
21
2.20833333333
0
ARC
5
A7
100
AcDbEntity
8
Camera_Engraving
6
CONTINUOUS
62
7
370
0
100
AcDbCircle
10
-6.55555555556
20
2.20833333333
40
0.277777777778
100
AcDbArc
50
360
51
180
0
LINE
5
A8
100
AcDbEntity
8
Camera_Engraving
6
CONTINUOUS
62
7
370
0
100
AcDbLine
10
-6.27777777778
20
2.20833333333
11
-6.27777777778
21
1.93055555556
0
LINE
5
A9
100
AcDbEntity
8
Camera_Engraving
6
CONTINUOUS
62
7
370
0
100
AcDbLine
10
-5.83333333333
20
2.48611111111
11
-6.28291777778
21
2.26152333333
0
LINE
5
AA
100
AcDbEntity
8
Camera_Engraving
6
CONTINUOUS
62
7
370
0
100
AcDbLine
10
-6.11111111111
20
2.91203333333
11
-6.11111111111
21
3.39351111111
0
LINE
5
AB
100
AcDbEntity
8
Camera_Engraving
6
CONTINUOUS
62
7
370
0
100
AcDbLine
10
-5.83333333333
20
2.81944444444
11
-6.83333333333
21
3.15277777778
0
LINE
5
AC
100
AcDbEntity
8
Camera_Engraving
6
CONTINUOUS
62
7
370
0
100
AcDbLine
10
-6.83333333333
20
3.15277777778
11
-5.83333333333
21
3.48611111111
0
LINE
5
AD
100
AcDbEntity
8
Camera_Engraving
6
CONTINUOUS
62
7
370
0
100
AcDbLine
10
-5.83333333333
20
3.81944444444
11
-6.83333333333
21
3.81944444444
0
LINE
5
AE
100
AcDbEntity
8
Camera_Engraving
6
CONTINUOUS
62
7
370
0
100
AcDbLine
10
-6.83333333333
20
3.81944444444
11
-5.83333333333
21
4.375
0
LINE
5
AF
100
AcDbEntity
8
Camera_Engraving
6
CONTINUOUS
62
7
370
0
100
AcDbLine
10
-5.83333333333
20
4.375
11
-6.83333333333
21
4.375
0
LINE
5
B0
100
AcDbEntity
8
Camera_Engraving
6
CONTINUOUS
62
7
370
0
100
AcDbLine
10
-6.38888888889
20
5.09722222222
11
-6.38888888889
21
5.26388888889
0
LINE
5
B1
100
AcDbEntity
8
Camera_Engraving
6
CONTINUOUS
62
7
370
0
100
AcDbLine
10
-6.38888888889
20
5.26388888889
11
-5.83333333333
21
5.26388888889
0
LINE
5
B2
100
AcDbEntity
8
Camera_Engraving
6
CONTINUOUS
62
7
370
0
100
AcDbLine
10
-5.83333333333
20
5.26388888889
11
-5.83333333333
21
4.93055555556
0
ARC
5
B3
100
AcDbEntity
8
Camera_Engraving
6
CONTINUOUS
62
7
370
0
100
AcDbCircle
10
-6.05555538954
20
4.93055538954
40
0.222222056206
100
AcDbArc
50
269.999957196
51
4.28042869768e-05
0
LINE
5
B4
100
AcDbEntity
8
Camera_Engraving
6
CONTINUOUS
62
7
370
0
100
AcDbLine
10
-6.05555555556
20
4.70833333333
11
-6.61111111111
21
4.70833333333
0
ARC
5
B5
100
AcDbEntity
8
Camera_Engraving
6
CONTINUOUS
62
7
370
0
100
AcDbCircle
10
-6.61111127713
20
4.93055538954
40
0.222222056206
100
AcDbArc
50
179.999957196
51
270.000042804
0
LINE
5
B6
100
AcDbEntity
8
Camera_Engraving
6
CONTINUOUS
62
7
370
0
100
AcDbLine
10
-6.83333333333
20
4.93055555556
11
-6.83333333333
21
5.26388888889
0
LINE
5
B7
100
AcDbEntity
8
Camera_Engraving
6
CONTINUOUS
62
7
370
0
100
AcDbLine
10
-5.83333333333
20
6.04166666667
11
-5.83333333333
21
5.59722222222
0
LINE
5
B8
100
AcDbEntity
8
Camera_Engraving
6
CONTINUOUS
62
7
370
0
100
AcDbLine
10
-5.83333333333
20
5.59722222222
11
-6.83333333333
21
5.59722222222
0
LINE
5
B9
100
AcDbEntity
8
Camera_Engraving
6
CONTINUOUS
62
7
370
0
100
AcDbLine
10
-6.83333333333
20
5.59722222222
11
-6.83333333333
21
6.04166666667
0
LINE
5
BA
100
AcDbEntity
8
Camera_Engraving
6
CONTINUOUS
62
7
370
0
100
AcDbLine
10
-6.38888888889
20
5.59722222222
11
-6.38888888889
21
5.93055555556
0
LINE
5
BB
100
AcDbEntity
8
Camera_Engraving
6
CONTINUOUS
62
7
370
0
100
AcDbLine
10
-5.83333333333
20
7.125
11
-5.83333333333
21
7.56944444444
0
LINE
5
BC
100
AcDbEntity
8
Camera_Engraving
6
CONTINUOUS
62
7
370
0
100
AcDbLine
10
-6.16666666667
20
7.125
11
-6.16666666667
21
7.56944444444
0
LINE
5
BD
100
AcDbEntity
8
Camera_Engraving
6
CONTINUOUS
62
7
370
0
100
AcDbLine
10
-5.83333333333
20
8.65277777778
11
-6.83333333333
21
8.65277777778
0
LINE
5
BE
100
AcDbEntity
8
Camera_Engraving
6
CONTINUOUS
62
7
370
0
100
AcDbLine
10
-6.83333333333
20
8.65277777778
11
-6.27777777778
21
8.98611111111
0
LINE
5
BF
100
AcDbEntity
8
Camera_Engraving
6
CONTINUOUS
62
7
370
0
100
AcDbLine
10
-6.27777777778
20
8.98611111111
11
-6.83333333333
21
9.31944444444
0
LINE
5
C0
100
AcDbEntity
8
Camera_Engraving
6
CONTINUOUS
62
7
370
0
100
AcDbLine
10
-6.83333333333
20
9.31944444444
11
-5.83333333333
21
9.31944444444
0
ARC
5
C1
100
AcDbEntity
8
Camera_Engraving
6
CONTINUOUS
62
7
370
0
100
AcDbCircle
10
-6.11111111111
20
9.93055555556
40
0.277777777778
100
AcDbArc
50
270
51
90
0
LINE
5
C2
100
AcDbEntity
8
Camera_Engraving
6
CONTINUOUS
62
7
370
0
100
AcDbLine
10
-6.11111111111
20
9.65277777778
11
-6.55555555556
21
9.65277777778
0
ARC
5
C3
100
AcDbEntity
8
Camera_Engraving
6
CONTINUOUS
62
7
370
0
100
AcDbCircle
10
-6.55555555556
20
9.93055555556
40
0.277777777778
100
AcDbArc
50
90
51
270
0
LINE
5
C4
100
AcDbEntity
8
Camera_Engraving
6
CONTINUOUS
62
7
370
0
100
AcDbLine
10
-6.55555555556
20
10.2083333333
11
-6.11111111111
21
10.2083333333
0
LINE
5
C5
100
AcDbEntity
8
Camera_Engraving
6
CONTINUOUS
62
7
370
0
100
AcDbLine
10
-6.83333333333
20
10.5416666667
11
-6.83333333333
21
11.0972222222
0
LINE
5
C6
100
AcDbEntity
8
Camera_Engraving
6
CONTINUOUS
62
7
370
0
100
AcDbLine
10
-6.83333333333
20
10.8194444444
11
-5.83333333333
21
10.8194444444
0
LINE
5
C7
100
AcDbEntity
8
Camera_Engraving
6
CONTINUOUS
62
7
370
0
100
AcDbLine
10
-5.83333333333
20
11.4305555556
11
-6.83333333333
21
11.4305555556
0
ARC
5
C8
100
AcDbEntity
8
Camera_Engraving
6
CONTINUOUS
62
7
370
0
100
AcDbCircle
10
-6.11111111111
20
12.0416666667
40
0.277777777778
100
AcDbArc
50
270
51
90
0
LINE
5
C9
100
AcDbEntity
8
Camera_Engraving
6
CONTINUOUS
62
7
370
0
100
AcDbLine
10
-6.11111111111
20
11.7638888889
11
-6.55555555556
21
11.7638888889
0
ARC
5
CA
100
AcDbEntity
8
Camera_Engraving
6
CONTINUOUS
62
7
370
0
100
AcDbCircle
10
-6.55555555556
20
12.0416666667
40
0.277777777778
100
AcDbArc
50
90
51
270
0
LINE
5
CB
100
AcDbEntity
8
Camera_Engraving
6
CONTINUOUS
62
7
370
0
100
AcDbLine
10
-6.55555555556
20
12.3194444444
11
-6.11111111111
21
12.3194444444
0
LINE
5
CC
100
AcDbEntity
8
Camera_Engraving
6
CONTINUOUS
62
7
370
0
100
AcDbLine
10
-5.83333333333
20
12.6527777778
11
-6.83333333333
21
12.6527777778
0
LINE
5
CD
100
AcDbEntity
8
Camera_Engraving
6
CONTINUOUS
62
7
370
0
100
AcDbLine
10
-6.83333333333
20
12.6527777778
11
-5.83333333333
21
13.2083333333
0
LINE
5
CE
100
AcDbEntity
8
Camera_Engraving
6
CONTINUOUS
62
7
370
0
100
AcDbLine
10
-5.83333333333
20
13.2083333333
11
-6.83333333333
21
13.2083333333
0
LINE
5
CF
100
AcDbEntity
8
Camera_Engraving
6
CONTINUOUS
62
7
370
0
100
AcDbLine
10
-5.83333333333
20
14.2916666667
11
-5.83333333333
21
14.625
0
ARC
5
D0
100
AcDbEntity
8
Camera_Engraving
6
CONTINUOUS
62
7
370
0
100
AcDbCircle
10
-6.05555538954
20
14.625000166
40
0.222222056206
100
AcDbArc
50
359.999957196
51
90.0000428043
0
LINE
5
D1
100
AcDbEntity
8
Camera_Engraving
6
CONTINUOUS
62
7
370
0
100
AcDbLine
10
-6.05555555556
20
14.8472222222
11
-6.61111111111
21
14.8472222222
0
ARC
5
D2
100
AcDbEntity
8
Camera_Engraving
6
CONTINUOUS
62
7
370
0
100
AcDbCircle
10
-6.61111127713
20
14.625000166
40
0.222222056206
100
AcDbArc
50
89.9999571957
51
180.000042804
0
LINE
5
D3
100
AcDbEntity
8
Camera_Engraving
6
CONTINUOUS
62
7
370
0
100
AcDbLine
10
-6.83333333333
20
14.625
11
-6.83333333333
21
14.2916666667
0
LINE
5
D4
100
AcDbEntity
8
Camera_Engraving
6
CONTINUOUS
62
7
370
0
100
AcDbLine
10
-6.83333333333
20
14.2916666667
11
-5.83333333333
21
14.2916666667
0
LINE
5
D5
100
AcDbEntity
8
Camera_Engraving
6
CONTINUOUS
62
7
370
0
100
AcDbLine
10
-5.83333333333
20
15.625
11
-5.83333333333
21
15.1805555556
0
LINE
5
D6
100
AcDbEntity
8
Camera_Engraving
6
CONTINUOUS
62
7
370
0
100
AcDbLine
10
-5.83333333333
20
15.1805555556
11
-6.83333333333
21
15.1805555556
0
LINE
5
D7
100
AcDbEntity
8
Camera_Engraving
6
CONTINUOUS
62
7
370
0
100
AcDbLine
10
-6.83333333333
20
15.1805555556
11
-6.83333333333
21
15.625
0
LINE
5
D8
100
AcDbEntity
8
Camera_Engraving
6
CONTINUOUS
62
7
370
0
100
AcDbLine
10
-6.38888888889
20
15.1805555556
11
-6.38888888889
21
15.5138888889
0
LINE
5
D9
100
AcDbEntity
8
Camera_Engraving
6
CONTINUOUS
62
7
370
0
100
AcDbLine
10
-6.83333333333
20
15.9583333333
11
-6.83333333333
21
16.5138888889
0
LINE
5
DA
100
AcDbEntity
8
Camera_Engraving
6
CONTINUOUS
62
7
370
0
100
AcDbLine
10
-6.83333333333
20
16.2361111111
11
-5.83333333333
21
16.2361111111
0
LINE
5
DB
100
AcDbEntity
8
Camera_Engraving
6
CONTINUOUS
62
7
370
0
100
AcDbLine
10
-5.83333333333
20
17.2916666667
11
-5.83333333333
21
16.8472222222
0
LINE
5
DC
100
AcDbEntity
8
Camera_Engraving
6
CONTINUOUS
62
7
370
0
100
AcDbLine
10
-5.83333333333
20
16.8472222222
11
-6.83333333333
21
16.8472222222
0
LINE
5
DD
100
AcDbEntity
8
Camera_Engraving
6
CONTINUOUS
62
7
370
0
100
AcDbLine
10
-6.83333333333
20
16.8472222222
11
-6.83333333333
21
17.2916666667
0
LINE
5
DE
100
AcDbEntity
8
Camera_Engraving
6
CONTINUOUS
62
7
370
0
100
AcDbLine
10
-6.38888888889
20
16.8472222222
11
-6.38888888889
21
17.1805555556
0
LINE
5
DF
100
AcDbEntity
8
Camera_Engraving
6
CONTINUOUS
62
7
370
0
100
AcDbLine
10
-5.83333333333
20
18.0694444444
11
-5.83333333333
21
17.8472222222
0
ARC
5
E0
100
AcDbEntity
8
Camera_Engraving
6
CONTINUOUS
62
7
370
0
100
AcDbCircle
10
-6.05555538954
20
17.8472220562
40
0.222222056206
100
AcDbArc
50
269.999957196
51
4.28042869768e-05
0
LINE
5
E1
100
AcDbEntity
8
Camera_Engraving
6
CONTINUOUS
62
7
370
0
100
AcDbLine
10
-6.05555555556
20
17.625
11
-6.61111111111
21
17.625
0
ARC
5
E2
100
AcDbEntity
8
Camera_Engraving
6
CONTINUOUS
62
7
370
0
100
AcDbCircle
10
-6.61111127713
20
17.8472220562
40
0.222222056206
100
AcDbArc
50
179.999957196
51
270.000042804
0
LINE
5
E3
100
AcDbEntity
8
Camera_Engraving
6
CONTINUOUS
62
7
370
0
100
AcDbLine
10
-6.83333333333
20
17.8472222222
11
-6.83333333333
21
18.0694444444
0
LINE
5
E4
100
AcDbEntity
8
Camera_Engraving
6
CONTINUOUS
62
7
370
0
100
AcDbLine
10
-6.83333333333
20
18.4027777778
11
-6.83333333333
21
18.9583333333
0
LINE
5
E5
100
AcDbEntity
8
Camera_Engraving
6
CONTINUOUS
62
7
370
0
100
AcDbLine
10
-6.83333333333
20
18.6805555556
11
-5.83333333333
21
18.6805555556
0
LINE
5
E6
100
AcDbEntity
8
Camera_Engraving
6
CONTINUOUS
62
7
370
0
100
AcDbLine
10
3
20
12.0833333333
11
3
21
13.0833333333
0
LINE
5
E7
100
AcDbEntity
8
Camera_Engraving
6
CONTINUOUS
62
7
370
0
100
AcDbLine
10
3
20
13.0833333333
11
3.27777777778
21
13.0833333333
0
ARC
5
E8
100
AcDbEntity
8
Camera_Engraving
6
CONTINUOUS
62
7
370
0
100
AcDbCircle
10
3.27777777778
20
12.8055555556
40
0.277777777778
100
AcDbArc
50
270
51
90
0
LINE
5
E9
100
AcDbEntity
8
Camera_Engraving
6
CONTINUOUS
62
7
370
0
100
AcDbLine
10
3.27777777778
20
12.5277777778
11
3
21
12.5277777778
0
LINE
5
EA
100
AcDbEntity
8
Camera_Engraving
6
CONTINUOUS
62
7
370
0
100
AcDbLine
10
3.55555555556
20
12.0833333333
11
3.33096777778
21
12.5329177778
0
LINE
5
EB
100
AcDbEntity
8
Camera_Engraving
6
CONTINUOUS
62
7
370
0
100
AcDbLine
10
4.33333333333
20
12.0833333333
11
3.88888888889
21
12.0833333333
0
LINE
5
EC
100
AcDbEntity
8
Camera_Engraving
6
CONTINUOUS
62
7
370
0
100
AcDbLine
10
3.88888888889
20
12.0833333333
11
3.88888888889
21
13.0833333333
0
LINE
5
ED
100
AcDbEntity
8
Camera_Engraving
6
CONTINUOUS
62
7
370
0
100
AcDbLine
10
3.88888888889
20
13.0833333333
11
4.33333333333
21
13.0833333333
0
LINE
5
EE
100
AcDbEntity
8
Camera_Engraving
6
CONTINUOUS
62
7
370
0
100
AcDbLine
10
3.88888888889
20
12.6388888889
11
4.22222222222
21
12.6388888889
0
LINE
5
EF
100
AcDbEntity
8
Camera_Engraving
6
CONTINUOUS
62
7
370
0
100
AcDbLine
10
5.11111111111
20
12.0833333333
11
4.88888888889
21
12.0833333333
0
ARC
5
F0
100
AcDbEntity
8
Camera_Engraving
6
CONTINUOUS
62
7
370
0
100
AcDbCircle
10
4.88888872287
20
12.3055553895
40
0.222222056206
100
AcDbArc
50
179.999957196
51
270.000042804
0
LINE
5
F1
100
AcDbEntity
8
Camera_Engraving
6
CONTINUOUS
62
7
370
0
100
AcDbLine
10
4.66666666667
20
12.3055555556
11
4.66666666667
21
12.8611111111
0
ARC
5
F2
100
AcDbEntity
8
Camera_Engraving
6
CONTINUOUS
62
7
370
0
100
AcDbCircle
10
4.88888872287
20
12.8611112771
40
0.222222056206
100
AcDbArc
50
89.9999571957
51
180.000042804
0
LINE
5
F3
100
AcDbEntity
8
Camera_Engraving
6
CONTINUOUS
62
7
370
0
100
AcDbLine
10
4.88888888889
20
13.0833333333
11
5.11111111111
21
13.0833333333
0
ARC
5
F4
100
AcDbEntity
8
Camera_Engraving
6
CONTINUOUS
62
7
370
0
100
AcDbCircle
10
5.72222222222
20
12.3611111111
40
0.277777777778
100
AcDbArc
50
180
51
0
0
LINE
5
F5
100
AcDbEntity
8
Camera_Engraving
6
CONTINUOUS
62
7
370
0
100
AcDbLine
10
5.44444444444
20
12.3611111111
11
5.44444444444
21
12.8055555556
0
ARC
5
F6
100
AcDbEntity
8
Camera_Engraving
6
CONTINUOUS
62
7
370
0
100
AcDbCircle
10
5.72222222222
20
12.8055555556
40
0.277777777778
100
AcDbArc
50
0
51
180
0
LINE
5
F7
100
AcDbEntity
8
Camera_Engraving
6
CONTINUOUS
62
7
370
0
100
AcDbLine
10
6
20
12.8055555556
11
6
21
12.3611111111
0
LINE
5
F8
100
AcDbEntity
8
Camera_Engraving
6
CONTINUOUS
62
7
370
0
100
AcDbLine
10
6.33333333333
20
12.0833333333
11
6.33333333333
21
13.0833333333
0
LINE
5
F9
100
AcDbEntity
8
Camera_Engraving
6
CONTINUOUS
62
7
370
0
100
AcDbLine
10
6.33333333333
20
13.0833333333
11
6.61111111111
21
13.0833333333
0
ARC
5
FA
100
AcDbEntity
8
Camera_Engraving
6
CONTINUOUS
62
7
370
0
100
AcDbCircle
10
6.61111111111
20
12.8055555556
40
0.277777777778
100
AcDbArc
50
270
51
90
0
LINE
5
FB
100
AcDbEntity
8
Camera_Engraving
6
CONTINUOUS
62
7
370
0
100
AcDbLine
10
6.61111111111
20
12.5277777778
11
6.33333333333
21
12.5277777778
0
LINE
5
FC
100
AcDbEntity
8
Camera_Engraving
6
CONTINUOUS
62
7
370
0
100
AcDbLine
10
6.88888888889
20
12.0833333333
11
6.66430111111
21
12.5329177778
0
LINE
5
FD
100
AcDbEntity
8
Camera_Engraving
6
CONTINUOUS
62
7
370
0
100
AcDbLine
10
7.22222222222
20
12.0833333333
11
7.55555555556
21
12.0833333333
0
ARC
5
FE
100
AcDbEntity
8
Camera_Engraving
6
CONTINUOUS
62
7
370
0
100
AcDbCircle
10
7.55555572157
20
12.3055553895
40
0.222222056206
100
AcDbArc
50
269.999957196
51
4.28042869768e-05
0
LINE
5
FF
100
AcDbEntity
8
Camera_Engraving
6
CONTINUOUS
62
7
370
0
100
AcDbLine
10
7.77777777778
20
12.3055555556
11
7.77777777778
21
12.8611111111
0
ARC
5
100
100
AcDbEntity
8
Camera_Engraving
6
CONTINUOUS
62
7
370
0
100
AcDbCircle
10
7.55555572157
20
12.8611112771
40
0.222222056206
100
AcDbArc
50
359.999957196
51
90.0000428043
0
LINE
5
101
100
AcDbEntity
8
Camera_Engraving
6
CONTINUOUS
62
7
370
0
100
AcDbLine
10
7.55555555556
20
13.0833333333
11
7.22222222222
21
13.0833333333
0
LINE
5
102
100
AcDbEntity
8
Camera_Engraving
6
CONTINUOUS
62
7
370
0
100
AcDbLine
10
7.22222222222
20
13.0833333333
11
7.22222222222
21
12.0833333333
0
ARC
5
103
100
AcDbEntity
8
Camera_Engraving
6
CONTINUOUS
62
7
370
0
100
AcDbCircle
10
3.33333296543
20
10.9722211185
40
0.555554451851
100
AcDbArc
50
233.130064412
51
270.000037943
0
ARC
5
104
100
AcDbEntity
8
Camera_Engraving
6
CONTINUOUS
62
7
370
0
100
AcDbCircle
10
3.33333324825
20
10.638888762
40
0.222222095302
100
AcDbArc
50
270.000021937
51
62.9810193843
0
LINE
5
105
100
AcDbEntity
8
Camera_Engraving
6
CONTINUOUS
62
7
370
0
100
AcDbLine
10
3.43428555556
20
10.8368566667
11
3.12127
21
10.9964766667
0
ARC
5
106
100
AcDbEntity
8
Camera_Engraving
6
CONTINUOUS
62
7
370
0
100
AcDbCircle
10
3.2222223073
20
11.1944445714
40
0.222222095302
100
AcDbArc
50
90.0000219368
51
242.981019384
0
ARC
5
107
100
AcDbEntity
8
Camera_Engraving
6
CONTINUOUS
62
7
370
0
100
AcDbCircle
10
3.22222220278
20
10.6944443472
40
0.722222319439
100
AcDbArc
50
67.3801365945
51
89.9999984575
0
LINE
5
108
100
AcDbEntity
8
Camera_Engraving
6
CONTINUOUS
62
7
370
0
100
AcDbLine
10
4.33333312133
20
10.4166666667
11
3.88888867689
21
10.4166666667
0
LINE
5
109
100
AcDbEntity
8
Camera_Engraving
6
CONTINUOUS
62
7
370
0
100
AcDbLine
10
3.88888867689
20
10.4166666667
11
3.88888867689
21
11.4166666667
0
LINE
5
10A
100
AcDbEntity
8
Camera_Engraving
6
CONTINUOUS
62
7
370
0
100
AcDbLine
10
3.88888867689
20
11.4166666667
11
4.33333312133
21
11.4166666667
0
LINE
5
10B
100
AcDbEntity
8
Camera_Engraving
6
CONTINUOUS
62
7
370
0
100
AcDbLine
10
3.88888867689
20
10.9722222222
11
4.22222201022
21
10.9722222222
0
LINE
5
10C
100
AcDbEntity
8
Camera_Engraving
6
CONTINUOUS
62
7
370
0
100
AcDbLine
10
4.66666645466
20
11.4166666667
11
4.66666645466
21
10.4166666667
0
LINE
5
10D
100
AcDbEntity
8
Camera_Engraving
6
CONTINUOUS
62
7
370
0
100
AcDbLine
10
4.66666645466
20
10.4166666667
11
5.11111089911
21
10.4166666667
0
LINE
5
10E
100
AcDbEntity
8
Camera_Engraving
6
CONTINUOUS
62
7
370
0
100
AcDbLine
10
5.88888867689
20
10.4166666667
11
5.44444423244
21
10.4166666667
0
LINE
5
10F
100
AcDbEntity
8
Camera_Engraving
6
CONTINUOUS
62
7
370
0
100
AcDbLine
10
5.44444423244
20
10.4166666667
11
5.44444423244
21
11.4166666667
0
LINE
5
110
100
AcDbEntity
8
Camera_Engraving
6
CONTINUOUS
62
7
370
0
100
AcDbLine
10
5.44444423244
20
11.4166666667
11
5.88888867689
21
11.4166666667
0
LINE
5
111
100
AcDbEntity
8
Camera_Engraving
6
CONTINUOUS
62
7
370
0
100
AcDbLine
10
5.44444423244
20
10.9722222222
11
5.77777756578
21
10.9722222222
0
LINE
5
112
100
AcDbEntity
8
Camera_Engraving
6
CONTINUOUS
62
7
370
0
100
AcDbLine
10
6.66666645466
20
10.4166666667
11
6.44444423244
21
10.4166666667
0
ARC
5
113
100
AcDbEntity
8
Camera_Engraving
6
CONTINUOUS
62
7
370
0
100
AcDbCircle
10
6.44444406643
20
10.6388887229
40
0.222222056206
100
AcDbArc
50
179.999957196
51
270.000042804
0
LINE
5
114
100
AcDbEntity
8
Camera_Engraving
6
CONTINUOUS
62
7
370
0
100
AcDbLine
10
6.22222201022
20
10.6388888889
11
6.22222201022
21
11.1944444444
0
ARC
5
115
100
AcDbEntity
8
Camera_Engraving
6
CONTINUOUS
62
7
370
0
100
AcDbCircle
10
6.44444406643
20
11.1944446105
40
0.222222056206
100
AcDbArc
50
89.9999571957
51
180.000042804
0
LINE
5
116
100
AcDbEntity
8
Camera_Engraving
6
CONTINUOUS
62
7
370
0
100
AcDbLine
10
6.44444423244
20
11.4166666667
11
6.66666645466
21
11.4166666667
0
LINE
5
117
100
AcDbEntity
8
Camera_Engraving
6
CONTINUOUS
62
7
370
0
100
AcDbLine
10
6.999999788
20
11.4166666667
11
7.55555534355
21
11.4166666667
0
LINE
5
118
100
AcDbEntity
8
Camera_Engraving
6
CONTINUOUS
62
7
370
0
100
AcDbLine
10
7.27777756578
20
11.4166666667
11
7.27777756578
21
10.4166666667
0
LINE
5
119
100
AcDbEntity
8
Camera_Engraving
6
CONTINUOUS
62
7
370
0
100
AcDbLine
10
3
20
23.75
11
3
21
23.0277777778
0
ARC
5
11A
100
AcDbEntity
8
Camera_Engraving
6
CONTINUOUS
62
7
370
0
100
AcDbCircle
10
3.27777777778
20
23.0277777778
40
0.277777777778
100
AcDbArc
50
180
51
0
0
LINE
5
11B
100
AcDbEntity
8
Camera_Engraving
6
CONTINUOUS
62
7
370
0
100
AcDbLine
10
3.55555555556
20
23.0277777778
11
3.55555555556
21
23.75
0
LINE
5
11C
100
AcDbEntity
8
Camera_Engraving
6
CONTINUOUS
62
7
370
0
100
AcDbLine
10
3.88888888889
20
22.75
11
3.88888888889
21
23.75
0
LINE
5
11D
100
AcDbEntity
8
Camera_Engraving
6
CONTINUOUS
62
7
370
0
100
AcDbLine
10
3.88888888889
20
23.75
11
4.16666666667
21
23.75
0
ARC
5
11E
100
AcDbEntity
8
Camera_Engraving
6
CONTINUOUS
62
7
370
0
100
AcDbCircle
10
4.16666666667
20
23.4722222222
40
0.277777777778
100
AcDbArc
50
270
51
90
0
LINE
5
11F
100
AcDbEntity
8
Camera_Engraving
6
CONTINUOUS
62
7
370
0
100
AcDbLine
10
4.16666666667
20
23.1944444444
11
3.88888888889
21
23.1944444444
0
LINE
5
120
100
AcDbEntity
8
Camera_Engraving
6
CONTINUOUS
62
7
370
0
100
AcDbLine
10
3
20
1.91666666667
11
3
21
2.91666666667
0
LINE
5
121
100
AcDbEntity
8
Camera_Engraving
6
CONTINUOUS
62
7
370
0
100
AcDbLine
10
3
20
2.91666666667
11
3.27777777778
21
2.91666666667
0
ARC
5
122
100
AcDbEntity
8
Camera_Engraving
6
CONTINUOUS
62
7
370
0
100
AcDbCircle
10
3.27777777778
20
2.63888888889
40
0.277777777778
100
AcDbArc
50
270
51
90
0
LINE
5
123
100
AcDbEntity
8
Camera_Engraving
6
CONTINUOUS
62
7
370
0
100
AcDbLine
10
3.27777777778
20
2.36111111111
11
3
21
2.36111111111
0
ARC
5
124
100
AcDbEntity
8
Camera_Engraving
6
CONTINUOUS
62
7
370
0
100
AcDbCircle
10
4.16666666667
20
2.19444444444
40
0.277777777778
100
AcDbArc
50
180
51
0
0
LINE
5
125
100
AcDbEntity
8
Camera_Engraving
6
CONTINUOUS
62
7
370
0
100
AcDbLine
10
3.88888888889
20
2.19444444444
11
3.88888888889
21
2.63888888889
0
ARC
5
126
100
AcDbEntity
8
Camera_Engraving
6
CONTINUOUS
62
7
370
0
100
AcDbCircle
10
4.16666666667
20
2.63888888889
40
0.277777777778
100
AcDbArc
50
0
51
180
0
LINE
5
127
100
AcDbEntity
8
Camera_Engraving
6
CONTINUOUS
62
7
370
0
100
AcDbLine
10
4.44444444444
20
2.63888888889
11
4.44444444444
21
2.19444444444
0
LINE
5
128
100
AcDbEntity
8
Camera_Engraving
6
CONTINUOUS
62
7
370
0
100
AcDbLine
10
4.77777777778
20
2.91666666667
11
5
21
1.91666666667
0
LINE
5
129
100
AcDbEntity
8
Camera_Engraving
6
CONTINUOUS
62
7
370
0
100
AcDbLine
10
5
20
1.91666666667
11
5.22222222222
21
2.58333333333
0
LINE
5
12A
100
AcDbEntity
8
Camera_Engraving
6
CONTINUOUS
62
7
370
0
100
AcDbLine
10
5.22222222222
20
2.58333333333
11
5.44444444444
21
1.91666666667
0
LINE
5
12B
100
AcDbEntity
8
Camera_Engraving
6
CONTINUOUS
62
7
370
0
100
AcDbLine
10
5.44444444444
20
1.91666666667
11
5.66666666667
21
2.91666666667
0
LINE
5
12C
100
AcDbEntity
8
Camera_Engraving
6
CONTINUOUS
62
7
370
0
100
AcDbLine
10
6.44444444444
20
1.91666666667
11
6
21
1.91666666667
0
LINE
5
12D
100
AcDbEntity
8
Camera_Engraving
6
CONTINUOUS
62
7
370
0
100
AcDbLine
10
6
20
1.91666666667
11
6
21
2.91666666667
0
LINE
5
12E
100
AcDbEntity
8
Camera_Engraving
6
CONTINUOUS
62
7
370
0
100
AcDbLine
10
6
20
2.91666666667
11
6.44444444444
21
2.91666666667
0
LINE
5
12F
100
AcDbEntity
8
Camera_Engraving
6
CONTINUOUS
62
7
370
0
100
AcDbLine
10
6
20
2.47222222222
11
6.33333333333
21
2.47222222222
0
LINE
5
130
100
AcDbEntity
8
Camera_Engraving
6
CONTINUOUS
62
7
370
0
100
AcDbLine
10
6.77777777778
20
1.91666666667
11
6.77777777778
21
2.91666666667
0
LINE
5
131
100
AcDbEntity
8
Camera_Engraving
6
CONTINUOUS
62
7
370
0
100
AcDbLine
10
6.77777777778
20
2.91666666667
11
7.05555555556
21
2.91666666667
0
ARC
5
132
100
AcDbEntity
8
Camera_Engraving
6
CONTINUOUS
62
7
370
0
100
AcDbCircle
10
7.05555555556
20
2.63888888889
40
0.277777777778
100
AcDbArc
50
270
51
90
0
LINE
5
133
100
AcDbEntity
8
Camera_Engraving
6
CONTINUOUS
62
7
370
0
100
AcDbLine
10
7.05555555556
20
2.36111111111
11
6.77777777778
21
2.36111111111
0
LINE
5
134
100
AcDbEntity
8
Camera_Engraving
6
CONTINUOUS
62
7
370
0
100
AcDbLine
10
7.33333333333
20
1.91666666667
11
7.10874555556
21
2.36625111111
0
LINE
5
135
100
AcDbEntity
8
Camera_Engraving
6
CONTINUOUS
62
7
370
0
100
AcDbLine
10
3
20
0.25
11
3
21
1.25
0
LINE
5
136
100
AcDbEntity
8
Camera_Engraving
6
CONTINUOUS
62
7
370
0
100
AcDbLine
10
3
20
1.25
11
3.33333333333
21
0.694444444444
0
LINE
5
137
100
AcDbEntity
8
Camera_Engraving
6
CONTINUOUS
62
7
370
0
100
AcDbLine
10
3.33333333333
20
0.694444444444
11
3.66666666667
21
1.25
0
LINE
5
138
100
AcDbEntity
8
Camera_Engraving
6
CONTINUOUS
62
7
370
0
100
AcDbLine
10
3.66666666667
20
1.25
11
3.66666666667
21
0.25
0
ARC
5
139
100
AcDbEntity
8
Camera_Engraving
6
CONTINUOUS
62
7
370
0
100
AcDbCircle
10
4.27777777778
20
0.527777777778
40
0.277777777778
100
AcDbArc
50
180
51
0
0
LINE
5
13A
100
AcDbEntity
8
Camera_Engraving
6
CONTINUOUS
62
7
370
0
100
AcDbLine
10
4
20
0.527777777778
11
4
21
0.972222222222
0
ARC
5
13B
100
AcDbEntity
8
Camera_Engraving
6
CONTINUOUS
62
7
370
0
100
AcDbCircle
10
4.27777777778
20
0.972222222222
40
0.277777777778
100
AcDbArc
50
0
51
180
0
LINE
5
13C
100
AcDbEntity
8
Camera_Engraving
6
CONTINUOUS
62
7
370
0
100
AcDbLine
10
4.55555555556
20
0.972222222222
11
4.55555555556
21
0.527777777778
0
LINE
5
13D
100
AcDbEntity
8
Camera_Engraving
6
CONTINUOUS
62
7
370
0
100
AcDbLine
10
4.88888888889
20
0.25
11
5.22222222222
21
0.25
0
ARC
5
13E
100
AcDbEntity
8
Camera_Engraving
6
CONTINUOUS
62
7
370
0
100
AcDbCircle
10
5.22222238824
20
0.472222056206
40
0.222222056206
100
AcDbArc
50
269.999957196
51
4.28042869768e-05
0
LINE
5
13F
100
AcDbEntity
8
Camera_Engraving
6
CONTINUOUS
62
7
370
0
100
AcDbLine
10
5.44444444444
20
0.472222222222
11
5.44444444444
21
1.02777777778
0
ARC
5
140
100
AcDbEntity
8
Camera_Engraving
6
CONTINUOUS
62
7
370
0
100
AcDbCircle
10
5.22222238824
20
1.02777794379
40
0.222222056206
100
AcDbArc
50
359.999957196
51
90.0000428043
0
LINE
5
141
100
AcDbEntity
8
Camera_Engraving
6
CONTINUOUS
62
7
370
0
100
AcDbLine
10
5.22222222222
20
1.25
11
4.88888888889
21
1.25
0
LINE
5
142
100
AcDbEntity
8
Camera_Engraving
6
CONTINUOUS
62
7
370
0
100
AcDbLine
10
4.88888888889
20
1.25
11
4.88888888889
21
0.25
0
LINE
5
143
100
AcDbEntity
8
Camera_Engraving
6
CONTINUOUS
62
7
370
0
100
AcDbLine
10
6.22222222222
20
0.25
11
5.77777777778
21
0.25
0
LINE
5
144
100
AcDbEntity
8
Camera_Engraving
6
CONTINUOUS
62
7
370
0
100
AcDbLine
10
5.77777777778
20
0.25
11
5.77777777778
21
1.25
0
LINE
5
145
100
AcDbEntity
8
Camera_Engraving
6
CONTINUOUS
62
7
370
0
100
AcDbLine
10
5.77777777778
20
1.25
11
6.22222222222
21
1.25
0
LINE
5
146
100
AcDbEntity
8
Camera_Engraving
6
CONTINUOUS
62
7
370
0
100
AcDbLine
10
5.77777777778
20
0.805555555556
11
6.11111111111
21
0.805555555556
0
LINE
5
147
100
AcDbEntity
8
Camera_Engraving
6
CONTINUOUS
62
7
370
0
100
AcDbLine
10
3
20
-1.41666666667
11
3.33333333333
21
-1.41666666667
0
ARC
5
148
100
AcDbEntity
8
Camera_Engraving
6
CONTINUOUS
62
7
370
0
100
AcDbCircle
10
3.33333349935
20
-1.19444461046
40
0.222222056206
100
AcDbArc
50
269.999957196
51
4.28042869768e-05
0
LINE
5
149
100
AcDbEntity
8
Camera_Engraving
6
CONTINUOUS
62
7
370
0
100
AcDbLine
10
3.55555555556
20
-1.19444444444
11
3.55555555556
21
-0.638888888889
0
ARC
5
14A
100
AcDbEntity
8
Camera_Engraving
6
CONTINUOUS
62
7
370
0
100
AcDbCircle
10
3.33333349935
20
-0.638888722872
40
0.222222056206
100
AcDbArc
50
359.999957196
51
90.0000428043
0
LINE
5
14B
100
AcDbEntity
8
Camera_Engraving
6
CONTINUOUS
62
7
370
0
100
AcDbLine
10
3.33333333333
20
-0.416666666667
11
3
21
-0.416666666667
0
LINE
5
14C
100
AcDbEntity
8
Camera_Engraving
6
CONTINUOUS
62
7
370
0
100
AcDbLine
10
3
20
-0.416666666667
11
3
21
-1.41666666667
0
ARC
5
14D
100
AcDbEntity
8
Camera_Engraving
6
CONTINUOUS
62
7
370
0
100
AcDbCircle
10
4.16666666667
20
-1.13888888889
40
0.277777777778
100
AcDbArc
50
180
51
0
0
LINE
5
14E
100
AcDbEntity
8
Camera_Engraving
6
CONTINUOUS
62
7
370
0
100
AcDbLine
10
3.88888888889
20
-1.13888888889
11
3.88888888889
21
-0.694444444444
0
ARC
5
14F
100
AcDbEntity
8
Camera_Engraving
6
CONTINUOUS
62
7
370
0
100
AcDbCircle
10
4.16666666667
20
-0.694444444444
40
0.277777777778
100
AcDbArc
50
0
51
180
0
LINE
5
150
100
AcDbEntity
8
Camera_Engraving
6
CONTINUOUS
62
7
370
0
100
AcDbLine
10
4.44444444444
20
-0.694444444444
11
4.44444444444
21
-1.13888888889
0
LINE
5
151
100
AcDbEntity
8
Camera_Engraving
6
CONTINUOUS
62
7
370
0
100
AcDbLine
10
4.77777777778
20
-0.416666666667
11
5
21
-1.41666666667
0
LINE
5
152
100
AcDbEntity
8
Camera_Engraving
6
CONTINUOUS
62
7
370
0
100
AcDbLine
10
5
20
-1.41666666667
11
5.22222222222
21
-0.75
0
LINE
5
153
100
AcDbEntity
8
Camera_Engraving
6
CONTINUOUS
62
7
370
0
100
AcDbLine
10
5.22222222222
20
-0.75
11
5.44444444444
21
-1.41666666667
0
LINE
5
154
100
AcDbEntity
8
Camera_Engraving
6
CONTINUOUS
62
7
370
0
100
AcDbLine
10
5.44444444444
20
-1.41666666667
11
5.66666666667
21
-0.416666666667
0
LINE
5
155
100
AcDbEntity
8
Camera_Engraving
6
CONTINUOUS
62
7
370
0
100
AcDbLine
10
6
20
-1.41666666667
11
6
21
-0.416666666667
0
LINE
5
156
100
AcDbEntity
8
Camera_Engraving
6
CONTINUOUS
62
7
370
0
100
AcDbLine
10
6
20
-0.416666666667
11
6.55555555556
21
-1.41666666667
0
LINE
5
157
100
AcDbEntity
8
Camera_Engraving
6
CONTINUOUS
62
7
370
0
100
AcDbLine
10
6.55555555556
20
-1.41666666667
11
6.55555555556
21
-0.416666666667
0
ENDSEC
0
SECTION
2
OBJECTS
0
DICTIONARY
5
C
330
0
100
AcDbDictionary
281
1
3
ACAD_GROUP
350
D
0
DICTIONARY
5
D
330
C
100
AcDbDictionary
281
1
0
ENDSEC
0
EOF
