999
dxfrw 0.5.4
0
SECTION
2
HEADER
9
$ACADVER
1
AC1021
9
$HANDSEED
5
20000
9
$DWGCODEPAGE
3
ANSI_1252
9
$INSBASE
10
0
20
0
30
0
9
$EXTMIN
10
1e+020
20
1e+020
30
1e+020
9
$EXTMAX
10
-1e+020
20
-1e+020
30
-1e+020
9
$LIMMIN
10
0
20
0
9
$LIMMAX
10
420
20
297
9
$ORTHOMODE
70
0
9
$LTSCALE
40
1
9
$TEXTSTYLE
7
STANDARD
9
$DIMASZ
40
2.5
9
$DIMEXO
40
0.625
9
$DIMEXE
40
1.25
9
$DIMTXT
40
2.5
9
$DIMTSZ
40
0
9
$DIMAUNIT
70
0
9
$DIMADEC
70
0
9
$DIMSTYLE
2
Standard
9
$DIMGAP
40
0.625
9
$DIMTIH
70
0
9
$LUNITS
70
2
9
$LUPREC
70
4
9
$AUNITS
70
0
9
$AUPREC
70
2
9
$SPLINESEGS
70
8
9
$GRIDMODE
70
1
9
$SNAPSTYLE
70
0
9
$PINSBASE
10
0
20
0
30
0
9
$PLIMMIN
10
0
20
0
9
$PLIMMAX
10
210
20
297
9
$INSUNITS
70
4
9
$PSVPSCALE
40
0
0
ENDSEC
0
SECTION
2
CLASSES
0
ENDSEC
0
SECTION
2
TABLES
0
TABLE
2
VPORT
5
8
330
0
100
AcDbSymbolTable
70
1
0
VPORT
5
31
330
2
100
AcDbSymbolTableRecord
100
AcDbViewportTableRecord
2
*ACTIVE
70
0
10
0
20
0
11
1
21
1
12
36.1881192664
22
18.8786586166
13
0
23
0
14
10
24
10
15
10
25
10
16
0
26
0
36
1
17
0
27
0
37
0
40
17.9612813437
41
1.75672043011
42
50
43
0
44
0
50
0
51
0
71
0
72
100
73
1
74
3
75
0
76
1
77
0
78
0
281
0
65
1
110
0
120
0
130
0
111
1
121
0
131
0
112
0
122
1
132
0
79
0
146
0
348
10020
60
7
61
5
292
1
282
1
141
0
142
0
63
250
421
3358443
0
ENDTAB
0
TABLE
2
LTYPE
5
5
330
0
100
AcDbSymbolTable
70
4
0
LTYPE
5
14
330
5
100
AcDbSymbolTableRecord
100
AcDbLinetypeTableRecord
2
ByBlock
70
0
3

72
65
73
0
40
0
0
LTYPE
5
15
330
5
100
AcDbSymbolTableRecord
100
AcDbLinetypeTableRecord
2
ByLayer
70
0
3

72
65
73
0
40
0
0
LTYPE
5
16
330
5
100
AcDbSymbolTableRecord
100
AcDbLinetypeTableRecord
2
Continuous
70
0
3
Solid line
72
65
73
0
40
0
0
LTYPE
5
32
330
5
100
AcDbSymbolTableRecord
100
AcDbLinetypeTableRecord
2
DOT
70
0
3
Dot . . . . . . . . . . . . . . . . . . . . . .
72
65
73
2
40
6.35
49
0
74
0
49
-6.35
74
0
0
LTYPE
5
33
330
5
100
AcDbSymbolTableRecord
100
AcDbLinetypeTableRecord
2
DOT2
70
0
3
Dot (.5x) .....................................
72
65
73
2
40
3.175
49
0
74
0
49
-3.175
74
0
0
LTYPE
5
34
330
5
100
AcDbSymbolTableRecord
100
AcDbLinetypeTableRecord
2
DOTX2
70
0
3
Dot (2x) .  .  .  .  .  .  .  .  .  .  .  .  .
72
65
73
2
40
12.7
49
0
74
0
49
-12.7
74
0
0
LTYPE
5
35
330
5
100
AcDbSymbolTableRecord
100
AcDbLinetypeTableRecord
2
DASHED
70
0
3
Dot . . . . . . . . . . . . . . . . . . . . . .
72
65
73
2
40
19.05
49
12.7
74
0
49
-6.35
74
0
0
LTYPE
5
36
330
5
100
AcDbSymbolTableRecord
100
AcDbLinetypeTableRecord
2
DASHED2
70
0
3
Dashed (.5x) _ _ _ _ _ _ _ _ _ _ _ _ _ _ _ _ _
72
65
73
2
40
9.525
49
6.35
74
0
49
-3.175
74
0
0
LTYPE
5
37
330
5
100
AcDbSymbolTableRecord
100
AcDbLinetypeTableRecord
2
DASHEDX2
70
0
3
Dashed (2x) ____  ____  ____  ____  ____  ___
72
65
73
2
40
38.1
49
25.4
74
0
49
-12.7
74
0
0
LTYPE
5
38
330
5
100
AcDbSymbolTableRecord
100
AcDbLinetypeTableRecord
2
DASHDOT
70
0
3
Dash dot __ . __ . __ . __ . __ . __ . __ . __
72
65
73
4
40
25.4
49
12.7
74
0
49
-6.35
74
0
49
0
74
0
49
-6.35
74
0
0
LTYPE
5
39
330
5
100
AcDbSymbolTableRecord
100
AcDbLinetypeTableRecord
2
DASHDOT2
70
0
3
Dash dot (.5x) _._._._._._._._._._._._._._._.
72
65
73
4
40
12.7
49
6.35
74
0
49
-3.175
74
0
49
0
74
0
49
-3.175
74
0
0
LTYPE
5
3A
330
5
100
AcDbSymbolTableRecord
100
AcDbLinetypeTableRecord
2
DASHDOTX2
70
0
3
Dash dot (2x) ____  .  ____  .  ____  .  ___
72
65
73
4
40
50.8
49
25.4
74
0
49
-12.7
74
0
49
0
74
0
49
-12.7
74
0
0
LTYPE
5
3B
330
5
100
AcDbSymbolTableRecord
100
AcDbLinetypeTableRecord
2
DIVIDE
70
0
3
Divide ____ . . ____ . . ____ . . ____ . . ____
72
65
73
6
40
31.75
49
12.7
74
0
49
-6.35
74
0
49
0
74
0
49
-6.35
74
0
49
0
74
0
49
-6.35
74
0
0
LTYPE
5
3C
330
5
100
AcDbSymbolTableRecord
100
AcDbLinetypeTableRecord
2
DIVIDE2
70
0
3
Divide (.5x) __..__..__..__..__..__..__..__.._
72
65
73
6
40
15.875
49
6.35
74
0
49
-3.175
74
0
49
0
74
0
49
-3.175
74
0
49
0
74
0
49
-3.175
74
0
0
LTYPE
5
3D
330
5
100
AcDbSymbolTableRecord
100
AcDbLinetypeTableRecord
2
DIVIDEX2
70
0
3
Divide (2x) ________  .  .  ________  .  .  _
72
65
73
6
40
63.5
49
25.4
74
0
49
-12.7
74
0
49
0
74
0
49
-12.7
74
0
49
0
74
0
49
-12.7
74
0
0
LTYPE
5
3E
330
5
100
AcDbSymbolTableRecord
100
AcDbLinetypeTableRecord
2
BORDER
70
0
3
Border __ __ . __ __ . __ __ . __ __ . __ __ .
72
65
73
6
40
44.45
49
12.7
74
0
49
-6.35
74
0
49
12.7
74
0
49
-6.35
74
0
49
0
74
0
49
-6.35
74
0
0
LTYPE
5
3F
330
5
100
AcDbSymbolTableRecord
100
AcDbLinetypeTableRecord
2
BORDER2
70
0
3
Border (.5x) __.__.__.__.__.__.__.__.__.__.__.
72
65
73
6
40
22.225
49
6.35
74
0
49
-3.175
74
0
49
6.35
74
0
49
-3.175
74
0
49
0
74
0
49
-3.175
74
0
0
LTYPE
5
40
330
5
100
AcDbSymbolTableRecord
100
AcDbLinetypeTableRecord
2
BORDERX2
70
0
3
Border (2x) ____  ____  .  ____  ____  .  ___
72
65
73
6
40
88.9
49
25.4
74
0
49
-12.7
74
0
49
25.4
74
0
49
-12.7
74
0
49
0
74
0
49
-12.7
74
0
0
LTYPE
5
41
330
5
100
AcDbSymbolTableRecord
100
AcDbLinetypeTableRecord
2
CENTER
70
0
3
Center ____ _ ____ _ ____ _ ____ _ ____ _ ____
72
65
73
4
40
50.8
49
31.75
74
0
49
-6.35
74
0
49
6.35
74
0
49
-6.35
74
0
0
LTYPE
5
42
330
5
100
AcDbSymbolTableRecord
100
AcDbLinetypeTableRecord
2
CENTER2
70
0
3
Center (.5x) ___ _ ___ _ ___ _ ___ _ ___ _ ___
72
65
73
4
40
28.575
49
19.05
74
0
49
-3.175
74
0
49
3.175
74
0
49
-3.175
74
0
0
LTYPE
5
43
330
5
100
AcDbSymbolTableRecord
100
AcDbLinetypeTableRecord
2
CENTERX2
70
0
3
Center (2x) ________  __  ________  __  _____
72
65
73
4
40
101.6
49
63.5
74
0
49
-12.7
74
0
49
12.7
74
0
49
-12.7
74
0
0
ENDTAB
0
TABLE
2
LAYER
5
2
330
0
100
AcDbSymbolTable
70
1
0
LAYER
5
10
330
2
100
AcDbSymbolTableRecord
100
AcDbLayerTableRecord
2
0
70
0
62
7
6
CONTINUOUS
370
0
390
F
0
LAYER
5
44
330
2
100
AcDbSymbolTableRecord
100
AcDbLayerTableRecord
2
ArduinoUNO_Pins
70
0
62
4
6
CONTINUOUS
370
0
390
F
0
LAYER
5
45
330
2
100
AcDbSymbolTableRecord
100
AcDbLayerTableRecord
2
ArduinoUNO_Board
70
0
62
2
6
CONTINUOUS
370
0
390
F
0
LAYER
5
46
330
2
100
AcDbSymbolTableRecord
100
AcDbLayerTableRecord
2
ArduinoUNO_MountingHoles
70
0
62
1
6
CONTINUOUS
370
0
390
F
0
LAYER
5
47
330
2
100
AcDbSymbolTableRecord
100
AcDbLayerTableRecord
2
ArduinoUNO_Ports
70
0
62
3
6
CONTINUOUS
370
0
390
F
0
ENDTAB
0
TABLE
2
STYLE
5
3
330
0
100
AcDbSymbolTable
70
3
0
STYLE
5
48
330
2
100
AcDbSymbolTableRecord
100
AcDbTextStyleTableRecord
2
STANDARD
70
0
40
0
41
1
50
0
71
0
42
1
3
STANDARD
4

0
ENDTAB
0
TABLE
2
VIEW
5
6
330
0
100
AcDbSymbolTable
70
0
0
ENDTAB
0
TABLE
2
UCS
5
7
330
0
100
AcDbSymbolTable
70
0
0
ENDTAB
0
TABLE
2
APPID
5
9
330
0
100
AcDbSymbolTable
70
1
0
APPID
5
12
330
9
100
AcDbSymbolTableRecord
100
AcDbRegAppTableRecord
2
ACAD
70
0
0
ENDTAB
0
TABLE
2
DIMSTYLE
5
A
330
0
100
AcDbSymbolTable
70
1
100
AcDbDimStyleTable
71
1
0
DIMSTYLE
105
49
330
A
100
AcDbSymbolTableRecord
100
AcDbDimStyleTableRecord
2
Standard
70
0
40
1
41
2.5
42
0.625
43
0.38
44
1.25
45
0
46
0
47
0
48
0
140
2.5
141
0.09
142
0
143
25.4
144
1
145
0
146
1
147
0.625
148
0
71
0
72
0
73
0
74
1
75
0
76
0
77
0
78
0
79
0
170
0
171
2
172
0
173
0
174
0
175
0
176
0
177
0
178
0
179
0
271
4
272
4
273
2
274
2
275
0
276
0
277
2
278
46
279
0
280
0
281
0
282
0
283
1
284
0
285
0
286
0
288
0
289
3
340
Standard
341

371
-2
372
-2
0
ENDTAB
0
TABLE
2
BLOCK_RECORD
5
1
330
0
100
AcDbSymbolTable
70
2
0
BLOCK_RECORD
5
1F
330
1
100
AcDbSymbolTableRecord
100
AcDbBlockTableRecord
2
*Model_Space
70
0
280
1
281
0
0
BLOCK_RECORD
5
1E
330
1
100
AcDbSymbolTableRecord
100
AcDbBlockTableRecord
2
*Paper_Space
70
0
280
1
281
0
0
ENDTAB
0
ENDSEC
0
SECTION
2
BLOCKS
0
BLOCK
5
20
330
1F
100
AcDbEntity
8
0
100
AcDbBlockBegin
2
*Model_Space
70
0
10
0
20
0
30
0
3
*Model_Space
1

0
ENDBLK
5
21
330
1F
100
AcDbEntity
8
0
100
AcDbBlockEnd
0
BLOCK
5
1C
330
1B
100
AcDbEntity
8
0
100
AcDbBlockBegin
2
*Paper_Space
70
0
10
0
20
0
30
0
3
*Paper_Space
1

0
ENDBLK
5
1D
330
1F
100
AcDbEntity
8
0
100
AcDbBlockEnd
0
ENDSEC
0
SECTION
2
ENTITIES
0
LINE
5
4A
100
AcDbEntity
8
ArduinoUNO_Board
6
ByLayer
62
256
370
-1
100
AcDbLine
10
0
20
0
11
3.3e-015
21
53.34
0
LINE
5
4B
100
AcDbEntity
8
ArduinoUNO_Board
6
ByLayer
62
256
370
-1
100
AcDbLine
10
0
20
0
11
66.04
21
0
0
LINE
5
4C
100
AcDbEntity
8
ArduinoUNO_Board
6
ByLayer
62
256
370
-1
100
AcDbLine
10
66.04
20
0
11
66.04
21
2.54
0
LINE
5
4D
100
AcDbEntity
8
ArduinoUNO_Board
6
ByLayer
62
256
370
-1
100
AcDbLine
10
66.04
20
2.54
11
68.58
21
5.08
0
LINE
5
4E
100
AcDbEntity
8
ArduinoUNO_Board
6
ByLayer
62
256
370
-1
100
AcDbLine
10
68.58
20
5.08
11
68.58
21
37.846
0
LINE
5
4F
100
AcDbEntity
8
ArduinoUNO_Board
6
ByLayer
62
256
370
-1
100
AcDbLine
10
66.04
20
40.386
11
68.58
21
37.846
0
LINE
5
50
100
AcDbEntity
8
ArduinoUNO_Board
6
ByLayer
62
256
370
-1
100
AcDbLine
10
66.04
20
40.386
11
66.04
21
51.816
0
LINE
5
51
100
AcDbEntity
8
ArduinoUNO_Board
6
ByLayer
62
256
370
-1
100
AcDbLine
10
3.3e-015
20
53.34
11
64.516
21
53.34
0
LINE
5
52
100
AcDbEntity
8
ArduinoUNO_Board
6
ByLayer
62
256
370
-1
100
AcDbLine
10
64.516
20
53.34
11
66.04
21
51.816
0
CIRCLE
5
53
100
AcDbEntity
8
ArduinoUNO_MountingHoles
6
ByLayer
62
256
370
-1
100
AcDbCircle
10
66.04
20
35.56
40
1.5
0
CIRCLE
5
54
100
AcDbEntity
8
ArduinoUNO_MountingHoles
6
ByLayer
62
256
370
-1
100
AcDbCircle
10
66.04
20
7.62
40
1.5
0
CIRCLE
5
55
100
AcDbEntity
8
ArduinoUNO_MountingHoles
6
ByLayer
62
256
370
-1
100
AcDbCircle
10
13.97
20
2.54
40
1.5
0
CIRCLE
5
56
100
AcDbEntity
8
ArduinoUNO_MountingHoles
6
ByLayer
62
256
370
-1
100
AcDbCircle
10
15.24
20
50.8
40
1.5
0
CIRCLE
5
57
100
AcDbEntity
8
ArduinoUNO_Pins
6
ByLayer
62
256
370
-1
100
AcDbCircle
10
27.94
20
2.54
40
0.635
0
CIRCLE
5
58
100
AcDbEntity
8
ArduinoUNO_Pins
6
ByLayer
62
256
370
-1
100
AcDbCircle
10
30.48
20
2.54
40
0.635
0
CIRCLE
5
59
100
AcDbEntity
8
ArduinoUNO_Pins
6
ByLayer
62
256
370
-1
100
AcDbCircle
10
33.02
20
2.54
40
0.635
0
CIRCLE
5
5A
100
AcDbEntity
8
ArduinoUNO_Pins
6
ByLayer
62
256
370
-1
100
AcDbCircle
10
35.56
20
2.54
40
0.635
0
CIRCLE
5
5B
100
AcDbEntity
8
ArduinoUNO_Pins
6
ByLayer
62
256
370
-1
100
AcDbCircle
10
38.1
20
2.54
40
0.635
0
CIRCLE
5
5C
100
AcDbEntity
8
ArduinoUNO_Pins
6
ByLayer
62
256
370
-1
100
AcDbCircle
10
40.64
20
2.54
40
0.635
0
CIRCLE
5
5D
100
AcDbEntity
8
ArduinoUNO_Pins
6
ByLayer
62
256
370
-1
100
AcDbCircle
10
43.18
20
2.54
40
0.635
0
CIRCLE
5
5E
100
AcDbEntity
8
ArduinoUNO_Pins
6
ByLayer
62
256
370
-1
100
AcDbCircle
10
45.72
20
2.54
40
0.635
0
CIRCLE
5
5F
100
AcDbEntity
8
ArduinoUNO_Pins
6
ByLayer
62
256
370
-1
100
AcDbCircle
10
50.8
20
2.54
40
0.635
0
CIRCLE
5
60
100
AcDbEntity
8
ArduinoUNO_Pins
6
ByLayer
62
256
370
-1
100
AcDbCircle
10
53.34
20
2.54
40
0.635
0
CIRCLE
5
61
100
AcDbEntity
8
ArduinoUNO_Pins
6
ByLayer
62
256
370
-1
100
AcDbCircle
10
55.88
20
2.54
40
0.635
0
CIRCLE
5
62
100
AcDbEntity
8
ArduinoUNO_Pins
6
ByLayer
62
256
370
-1
100
AcDbCircle
10
58.42
20
2.54
40
0.635
0
CIRCLE
5
63
100
AcDbEntity
8
ArduinoUNO_Pins
6
ByLayer
62
256
370
-1
100
AcDbCircle
10
60.96
20
2.54
40
0.635
0
CIRCLE
5
64
100
AcDbEntity
8
ArduinoUNO_Pins
6
ByLayer
62
256
370
-1
100
AcDbCircle
10
63.5
20
2.54
40
0.635
0
CIRCLE
5
65
100
AcDbEntity
8
ArduinoUNO_Pins
6
ByLayer
62
256
370
-1
100
AcDbCircle
10
18.796
20
50.8
40
0.635
0
CIRCLE
5
66
100
AcDbEntity
8
ArduinoUNO_Pins
6
ByLayer
62
256
370
-1
100
AcDbCircle
10
21.336
20
50.8
40
0.635
0
CIRCLE
5
67
100
AcDbEntity
8
ArduinoUNO_Pins
6
ByLayer
62
256
370
-1
100
AcDbCircle
10
23.876
20
50.8
40
0.635
0
CIRCLE
5
68
100
AcDbEntity
8
ArduinoUNO_Pins
6
ByLayer
62
256
370
-1
100
AcDbCircle
10
26.416
20
50.8
40
0.635
0
CIRCLE
5
69
100
AcDbEntity
8
ArduinoUNO_Pins
6
ByLayer
62
256
370
-1
100
AcDbCircle
10
28.956
20
50.8
40
0.635
0
CIRCLE
5
6A
100
AcDbEntity
8
ArduinoUNO_Pins
6
ByLayer
62
256
370
-1
100
AcDbCircle
10
31.496
20
50.8
40
0.635
0
CIRCLE
5
6B
100
AcDbEntity
8
ArduinoUNO_Pins
6
ByLayer
62
256
370
-1
100
AcDbCircle
10
34.036
20
50.8
40
0.635
0
CIRCLE
5
6C
100
AcDbEntity
8
ArduinoUNO_Pins
6
ByLayer
62
256
370
-1
100
AcDbCircle
10
36.576
20
50.8
40
0.635
0
CIRCLE
5
6D
100
AcDbEntity
8
ArduinoUNO_Pins
6
ByLayer
62
256
370
-1
100
AcDbCircle
10
39.116
20
50.8
40
0.635
0
CIRCLE
5
6E
100
AcDbEntity
8
ArduinoUNO_Pins
6
ByLayer
62
256
370
-1
100
AcDbCircle
10
41.656
20
50.8
40
0.635
0
CIRCLE
5
6F
100
AcDbEntity
8
ArduinoUNO_Pins
6
ByLayer
62
256
370
-1
100
AcDbCircle
10
45.72
20
50.8
40
0.635
0
CIRCLE
5
70
100
AcDbEntity
8
ArduinoUNO_Pins
6
ByLayer
62
256
370
-1
100
AcDbCircle
10
48.26
20
50.8
40
0.635
0
CIRCLE
5
71
100
AcDbEntity
8
ArduinoUNO_Pins
6
ByLayer
62
256
370
-1
100
AcDbCircle
10
50.8
20
50.8
40
0.635
0
CIRCLE
5
72
100
AcDbEntity
8
ArduinoUNO_Pins
6
ByLayer
62
256
370
-1
100
AcDbCircle
10
53.34
20
50.8
40
0.635
0
CIRCLE
5
73
100
AcDbEntity
8
ArduinoUNO_Pins
6
ByLayer
62
256
370
-1
100
AcDbCircle
10
55.88
20
50.8
40
0.635
0
CIRCLE
5
74
100
AcDbEntity
8
ArduinoUNO_Pins
6
ByLayer
62
256
370
-1
100
AcDbCircle
10
58.42
20
50.8
40
0.635
0
CIRCLE
5
75
100
AcDbEntity
8
ArduinoUNO_Pins
6
ByLayer
62
256
370
-1
100
AcDbCircle
10
60.96
20
50.8
40
0.635
0
CIRCLE
5
76
100
AcDbEntity
8
ArduinoUNO_Pins
6
ByLayer
62
256
370
-1
100
AcDbCircle
10
63.5
20
50.8
40
0.635
0
CIRCLE
5
77
100
AcDbEntity
8
ArduinoUNO_Pins
6
ByLayer
62
256
370
-1
100
AcDbCircle
10
63.64
20
30.43
40
0.635
0
CIRCLE
5
78
100
AcDbEntity
8
ArduinoUNO_Pins
6
ByLayer
62
256
370
-1
100
AcDbCircle
10
66.18
20
30.43
40
0.635
0
CIRCLE
5
79
100
AcDbEntity
8
ArduinoUNO_Pins
6
ByLayer
62
256
370
-1
100
AcDbCircle
10
63.64
20
27.89
40
0.635
0
CIRCLE
5
7A
100
AcDbEntity
8
ArduinoUNO_Pins
6
ByLayer
62
256
370
-1
100
AcDbCircle
10
66.18
20
27.89
40
0.635
0
CIRCLE
5
7B
100
AcDbEntity
8
ArduinoUNO_Pins
6
ByLayer
62
256
370
-1
100
AcDbCircle
10
63.64
20
25.35
40
0.635
0
CIRCLE
5
7C
100
AcDbEntity
8
ArduinoUNO_Pins
6
ByLayer
62
256
370
-1
100
AcDbCircle
10
66.18
20
25.35
40
0.635
0
LINE
5
7D
100
AcDbEntity
8
ArduinoUNO_Ports
6
ByLayer
62
256
370
-1
100
AcDbLine
10
-1.905
20
2.54
11
-1.905
21
11.43
0
LINE
5
7E
100
AcDbEntity
8
ArduinoUNO_Ports
6
ByLayer
62
256
370
-1
100
AcDbLine
10
-1.905
20
11.43
11
11.43
21
11.43
0
LINE
5
7F
100
AcDbEntity
8
ArduinoUNO_Ports
6
ByLayer
62
256
370
-1
100
AcDbLine
10
-1.905
20
2.54
11
11.43
21
2.54
0
LINE
5
80
100
AcDbEntity
8
ArduinoUNO_Ports
6
ByLayer
62
256
370
-1
100
AcDbLine
10
11.43
20
2.54
11
11.43
21
11.43
0
LINE
5
81
100
AcDbEntity
8
ArduinoUNO_Ports
6
ByLayer
62
256
370
-1
100
AcDbLine
10
-6.35
20
32.385
11
-6.35
21
43.815
0
LINE
5
82
100
AcDbEntity
8
ArduinoUNO_Ports
6
ByLayer
62
256
370
-1
100
AcDbLine
10
-6.35
20
43.815
11
9.525
21
43.815
0
LINE
5
83
100
AcDbEntity
8
ArduinoUNO_Ports
6
ByLayer
62
256
370
-1
100
AcDbLine
10
-6.35
20
32.385
11
9.525
21
32.385
0
LINE
5
84
100
AcDbEntity
8
ArduinoUNO_Ports
6
ByLayer
62
256
370
-1
100
AcDbLine
10
9.525
20
43.815
11
9.525
21
32.385
0
MTEXT
5
85
100
AcDbEntity
8
ArduinoUNO_Pins
6
ByLayer
62
256
370
-1
100
AcDbMText
10
62.14
20
30.43
30
0
40
1
41
2.77777756578
71
6
72
1
1
MISO
7
STANDARD
210
0
220
0
230
1
50
0
73
2
44
1
0
MTEXT
5
86
100
AcDbEntity
8
ArduinoUNO_Pins
6
ByLayer
62
256
370
-1
100
AcDbMText
10
62.14
20
27.89
30
0
40
1
41
2.22222201022
71
6
72
1
1
SCK
7
STANDARD
210
0
220
0
230
1
50
0
73
2
44
1
0
MTEXT
5
87
100
AcDbEntity
8
ArduinoUNO_Pins
6
ByLayer
62
256
370
-1
100
AcDbMText
10
62.14
20
25.35
30
0
40
1
41
2.33333312133
71
6
72
1
1
RST
7
STANDARD
210
0
220
0
230
1
50
0
73
2
44
1
0
MTEXT
5
88
100
AcDbEntity
8
ArduinoUNO_Pins
6
ByLayer
62
256
370
-1
100
AcDbMText
10
67.68
20
25.35
30
0
40
1
41
2.33333333333
71
4
72
1
1
GND
7
STANDARD
210
0
220
0
230
1
50
0
73
2
44
1
0
MTEXT
5
89
100
AcDbEntity
8
ArduinoUNO_Pins
6
ByLayer
62
256
370
-1
100
AcDbMText
10
67.68
20
27.89
30
0
40
1
41
2.77777756578
71
4
72
1
1
MOSI
7
STANDARD
210
0
220
0
230
1
50
0
73
2
44
1
0
MTEXT
5
8A
100
AcDbEntity
8
ArduinoUNO_Pins
6
ByLayer
62
256
370
-1
100
AcDbMText
10
43.18
20
4.04
30
0
40
1
41
2.33333333333
71
4
72
1
1
GND
7
STANDARD
210
0
220
0
230
1
50
90
73
2
44
1
0
MTEXT
5
8B
100
AcDbEntity
8
ArduinoUNO_Pins
6
ByLayer
62
256
370
-1
100
AcDbMText
10
40.64
20
4.04
30
0
40
1
41
2.33333333333
71
4
72
1
1
GND
7
STANDARD
210
0
220
0
230
1
50
90
73
2
44
1
0
MTEXT
5
8C
100
AcDbEntity
8
ArduinoUNO_Pins
6
ByLayer
62
256
370
-1
100
AcDbMText
10
38.1
20
4.04
30
0
40
1
41
1.44444444444
71
4
72
1
1
5V
7
STANDARD
210
0
220
0
230
1
50
90
73
2
44
1
0
MTEXT
5
8D
100
AcDbEntity
8
ArduinoUNO_Pins
6
ByLayer
62
256
370
-1
100
AcDbMText
10
45.72
20
4.04
30
0
40
1
41
1.77777777778
71
4
72
1
1
Vin
7
STANDARD
210
0
220
0
230
1
50
90
73
2
44
1
0
MTEXT
5
8E
100
AcDbEntity
8
ArduinoUNO_Pins
6
ByLayer
62
256
370
-1
100
AcDbMText
10
35.56
20
4.04
30
0
40
1
41
2.55555555556
71
4
72
1
1
3.3V
7
STANDARD
210
0
220
0
230
1
50
90
73
2
44
1
0
MTEXT
5
8F
100
AcDbEntity
8
ArduinoUNO_Pins
6
ByLayer
62
256
370
-1
100
AcDbMText
10
33.02
20
4.04
30
0
40
1
41
2.33333312133
71
4
72
1
1
RST
7
STANDARD
210
0
220
0
230
1
50
90
73
2
44
1
0
MTEXT
5
90
100
AcDbEntity
8
ArduinoUNO_Pins
6
ByLayer
62
256
370
-1
100
AcDbMText
10
30.48
20
4.04
30
0
40
1
41
3
71
4
72
1
1
IOref
7
STANDARD
210
0
220
0
230
1
50
90
73
2
44
1
0
MTEXT
5
91
100
AcDbEntity
8
ArduinoUNO_Pins
6
ByLayer
62
256
370
-1
100
AcDbMText
10
58.42
20
49.3
30
0
40
1
41
2.55555555556
71
6
72
1
1
INT0
7
STANDARD
210
0
220
0
230
1
50
90
73
2
44
1
0
MTEXT
5
92
100
AcDbEntity
8
ArduinoUNO_Pins
6
ByLayer
62
256
370
-1
100
AcDbMText
10
60.96
20
49.3
30
0
40
1
41
1.33333333333
71
6
72
1
1
Tx
7
STANDARD
210
0
220
0
230
1
50
90
73
2
44
1
0
MTEXT
5
93
100
AcDbEntity
8
ArduinoUNO_Pins
6
ByLayer
62
256
370
-1
100
AcDbMText
10
63.5
20
49.3
30
0
40
1
41
1.33333333333
71
6
72
1
1
Rx
7
STANDARD
210
0
220
0
230
1
50
90
73
2
44
1
0
MTEXT
5
94
100
AcDbEntity
8
ArduinoUNO_Pins
6
ByLayer
62
256
370
-1
100
AcDbMText
10
55.88
20
49.3
30
0
40
1
41
6.22222222222
71
6
72
1
1
INT1/PWM
7
STANDARD
210
0
220
0
230
1
50
90
73
2
44
1
0
MTEXT
5
95
100
AcDbEntity
8
ArduinoUNO_Pins
6
ByLayer
62
256
370
-1
100
AcDbMText
10
50.8
20
49.3
30
0
40
1
41
2.77777777778
71
6
72
1
1
PWM
7
STANDARD
210
0
220
0
230
1
50
90
73
2
44
1
0
MTEXT
5
96
100
AcDbEntity
8
ArduinoUNO_Pins
6
ByLayer
62
256
370
-1
100
AcDbMText
10
48.26
20
49.3
30
0
40
1
41
2.77777777778
71
6
72
1
1
PWM
7
STANDARD
210
0
220
0
230
1
50
90
73
2
44
1
0
MTEXT
5
97
100
AcDbEntity
8
ArduinoUNO_Pins
6
ByLayer
62
256
370
-1
100
AcDbMText
10
39.116
20
49.3
30
0
40
1
41
2.77777777778
71
6
72
1
1
PWM
7
STANDARD
210
0
220
0
230
1
50
90
73
2
44
1
0
MTEXT
5
98
100
AcDbEntity
8
ArduinoUNO_Pins
6
ByLayer
62
256
370
-1
100
AcDbMText
10
36.576
20
49.3
30
0
40
1
41
5.33333290933
71
6
72
1
1
SS/PWM
7
STANDARD
210
0
220
0
230
1
50
90
73
2
44
1
0
MTEXT
5
99
100
AcDbEntity
8
ArduinoUNO_Pins
6
ByLayer
62
256
370
-1
100
AcDbMText
10
34.036
20
49.3
30
0
40
1
41
6.66666645466
71
6
72
1
1
MOSI/PWM
7
STANDARD
210
0
220
0
230
1
50
90
73
2
44
1
0
MTEXT
5
9A
100
AcDbEntity
8
ArduinoUNO_Pins
6
ByLayer
62
256
370
-1
100
AcDbMText
10
31.496
20
49.3
30
0
40
1
41
2.77777756578
71
6
72
1
1
MISO
7
STANDARD
210
0
220
0
230
1
50
90
73
2
44
1
0
MTEXT
5
9B
100
AcDbEntity
8
ArduinoUNO_Pins
6
ByLayer
62
256
370
-1
100
AcDbMText
10
28.956
20
49.3
30
0
40
1
41
5.44444423244
71
6
72
1
1
SCK/LED
7
STANDARD
210
0
220
0
230
1
50
90
73
2
44
1
0
MTEXT
5
9C
100
AcDbEntity
8
ArduinoUNO_Pins
6
ByLayer
62
256
370
-1
100
AcDbMText
10
26.416
20
49.3
30
0
40
1
41
2.33333333333
71
6
72
1
1
GND
7
STANDARD
210
0
220
0
230
1
50
90
73
2
44
1
0
MTEXT
5
9D
100
AcDbEntity
8
ArduinoUNO_Pins
6
ByLayer
62
256
370
-1
100
AcDbMText
10
23.876
20
49.3
30
0
40
1
41
2.77777777778
71
6
72
1
1
Aref
7
STANDARD
210
0
220
0
230
1
50
90
73
2
44
1
0
MTEXT
5
9E
100
AcDbEntity
8
ArduinoUNO_Pins
6
ByLayer
62
256
370
-1
100
AcDbMText
10
63.5
20
4.04
30
0
40
1
41
2.44444423244
71
4
72
1
1
SDA
7
STANDARD
210
0
220
0
230
1
50
90
73
2
44
1
0
MTEXT
5
9F
100
AcDbEntity
8
ArduinoUNO_Pins
6
ByLayer
62
256
370
-1
100
AcDbMText
10
60.96
20
4.04
30
0
40
1
41
2.11111089911
71
4
72
1
1
SCL
7
STANDARD
210
0
220
0
230
1
50
90
73
2
44
1
0
MTEXT
5
A0
100
AcDbEntity
8
ArduinoUNO_Pins
6
ByLayer
62
256
370
-1
100
AcDbMText
10
67.68
20
30.43
30
0
40
1
41
2.44444444444
71
4
72
1
1
VTG
7

210
0
220
0
230
1
50
0
73
2
44
1
0
ENDSEC
0
SECTION
2
OBJECTS
0
DICTIONARY
5
C
330
0
100
AcDbDictionary
281
1
3
ACAD_GROUP
350
D
0
DICTIONARY
5
D
330
C
100
AcDbDictionary
281
1
0
ENDSEC
0
EOF
